<?xml version="1.0" standalone="no"?>
<!DOCTYPE svg PUBLIC "-//W3C//DTD SVG 1.1//EN" "http://www.w3.org/Graphics/SVG/1.1/DTD/svg11.dtd" >
<svg xmlns="http://www.w3.org/2000/svg">
<metadata>Generated by IcoMoon</metadata>
<defs>
<font id="icomoon" horiz-adv-x="512">
<font-face units-per-em="512" ascent="480" descent="-32" />
<missing-glyph horiz-adv-x="512" />
<glyph unicode="&#x20;" d="" horiz-adv-x="256" />
<glyph unicode="&#xe600;" d="M368.87 196.435c-34.413 0-64.256-19.411-79.264-47.872-49.094 20.774-88.391 60.16-109.069 109.299 28.531 14.989 48.019 44.864 48.019 79.328 0 49.485-40.115 89.6-89.6 89.6s-89.6-40.115-89.6-89.6c0.026-176.377 142.758-319.392 319.027-319.93 0.16 0 0.327-0.026 0.486-0.026 0.058 0 0.109 0.013 0.16 0.013 0.115 0 0.211-0.013 0.327-0.013v0.026c49.261 0.275 89.113 40.262 89.113 89.575 0 49.491-40.115 89.6-89.6 89.6zM369.216 42.861c-0.128 0-0.25 0-0.377 0-0.135 0-0.262 0-0.39 0-161.811 0.486-293.472 132.525-293.498 294.323 0 35.289 28.71 64 64 64s64-28.711 64-64c0-23.827-13.152-45.536-34.323-56.666-11.769-6.176-16.845-20.339-11.686-32.589 23.111-54.925 67.827-99.738 122.688-122.951 3.245-1.376 6.63-2.035 9.965-2.035 9.235 0 18.099 5.024 22.656 13.677 11.13 21.101 32.825 34.214 56.621 34.214 35.289 0 64-28.711 64-64 0-35.085-28.55-63.783-63.654-63.974zM140.8 237.376c-1.44 3.238-5.203 4.697-8.441 3.264-3.232-1.427-4.691-5.203-3.27-8.435 9.511-21.511 21.92-41.728 36.883-60.077 1.267-1.549 3.104-2.361 4.966-2.361 1.421 0 2.848 0.474 4.038 1.453 2.739 2.227 3.149 6.265 0.922 8.998-14.24 17.459-26.054 36.697-35.097 57.159z" />
<glyph unicode="&#xe601;" d="M447.93 306.688l-108.608 108.615c-14.995 15.001-39.309 15.001-54.298 0l-148.576-148.563c-14.995-15.001-14.995-39.315 0-54.31l22.631-22.624-95.475-95.469c-17.491-17.498-17.491-45.863 0-63.36 17.498-17.498 45.862-17.498 63.36 0l95.469 95.475 22.624-22.637c14.995-14.989 39.315-14.989 54.304 0l148.563 148.563c15.008 14.995 15.008 39.309 0.007 54.31zM321.216 397.197l9.037-9.037-67.111-67.111c-2.502-2.502-2.502-6.547 0-9.049s6.547-2.502 9.050 0l67.111 67.111 18.118-18.125-49.005-48.999c-2.502-2.502-2.502-6.547 0-9.049s6.547-2.502 9.050 0l49.005 48.999 18.080-18.074-85.203-85.209c-2.502-2.502-2.502-6.547 0-9.049s6.553-2.502 9.056 0l85.203 85.21 18.106-18.112-67.104-67.104c-2.502-2.502-2.502-6.547 0-9.049s6.547-2.502 9.050 0l67.104 67.097 9.069-9.063c4.986-4.986 4.986-13.113 0-18.099l-89.728-89.735-126.72 126.714 89.734 89.734c4.992 4.992 13.113 4.992 18.099 0zM321.997 162.649l-18.099-18.099-126.714 126.714 18.099 18.099 126.714-126.714zM263.168 121.913l-22.631 22.637c-10.618 10.611-24.883 11.328-36.205 0l-95.463-95.475c-7.488-7.488-19.667-7.488-27.155 0s-7.488 19.673 0 27.149l95.469 95.475c11.539 11.539 11.802 24.403 0 36.199l-22.624 22.624c-4.992 4.999-4.992 13.113 0 18.112l13.575 13.575 126.713-126.714-13.575-13.575c-4.998-4.992-13.12-4.992-18.106-0.007z" />
<glyph unicode="&#xe602;" d="M306.822 219.635l6.759 6.752c5.901-1.913 12.045-2.873 18.189-2.873 14.95 0 29.888 5.69 41.299 17.101l85.338 85.337-99.552 99.559-85.344-85.338c-16.096-16.102-20.806-39.226-14.233-59.475l-6.771-6.777-155.725 155.757c-31.027-31.027-42.969-101.85-3.981-140.839l87.322-87.303-120.883-120.883c-15.002-14.989-14.995-39.315 0-54.298 7.495-7.501 17.325-11.251 27.149-11.251s19.654 3.75 27.155 11.251l121.817 121.824c2.246-0.947 4.627-1.453 7.027-1.453 4.608 0 9.209 1.747 12.73 5.274l5.369 5.363 131.379-131.385c7.495-7.501 17.325-11.251 27.149-11.251 9.831 0 19.654 3.75 27.155 11.251 14.995 15.002 15.002 39.315 0 54.31l-139.347 139.347zM277.382 262.599l11.091 11.085-4.845 14.912c-3.859 11.872-0.793 24.697 7.981 33.472l67.245 67.245 63.347-63.36-67.232-67.238c-6.195-6.189-14.432-9.6-23.2-9.6-3.501 0-6.963 0.55-10.279 1.625l-14.918 4.851-17.843-17.85-14.522 14.515c-0.026 0.025-0.058 0.051-0.083 0.077l-3.514 3.501 6.771 6.765zM95.443 44.448c-3.264-3.264-7.072-3.75-9.056-3.75s-5.785 0.486-9.043 3.75c-3.27 3.264-3.757 7.072-3.757 9.050 0 1.99 0.487 5.786 3.751 9.050l120.883 120.889 18.106-18.099-120.883-120.889zM428.070 44.077c-3.257-3.264-7.065-3.75-9.050-3.75s-5.786 0.486-9.050 3.75l-149.472 149.472-18.106-18.087-131.494 131.475c-21.293 21.299-20.563 56.813-10.041 82.464l327.219-327.213c3.264-3.277 3.75-7.072 3.75-9.063 0-1.978-0.493-5.792-3.757-9.050z" />
<glyph unicode="&#xe603;" d="M419.008 350.202h-332.8c-21.203 0-38.4-17.203-38.4-38.4v-179.2c0-21.209 17.197-38.4 38.4-38.4h332.8c21.203 0 38.4 17.19 38.4 38.4v179.2c0 21.197-17.197 38.4-38.4 38.4zM431.808 132.601c0-7.065-5.741-12.8-12.8-12.8h-332.8c-7.059 0-12.8 5.735-12.8 12.8v179.2c0 7.053 5.741 12.8 12.8 12.8h332.8c7.059 0 12.8-5.747 12.8-12.8v-179.2zM169.107 183.815c0.025 0 0.051-0.013 0.077-0.013h166.003c0.045 0 0.083 0.026 0.128 0.026 0.166 0 0.333-0.026 0.499-0.026 24.743 0 44.8 20.051 44.8 44.8 0 24.736-20.058 44.8-44.8 44.8-0.166 0-0.333-0.025-0.499-0.025-0.045 0-0.083 0.025-0.128 0.025h-166.003c-0.025 0-0.051-0.013-0.077-0.013-24.608-0.16-44.499-20.147-44.499-44.787 0-24.653 19.891-44.627 44.499-44.787zM355.008 228.601c0-10.586-8.615-19.2-19.2-19.2s-19.2 8.615-19.2 19.2 8.615 19.2 19.2 19.2 19.2-8.614 19.2-19.2zM304.48 260.601c-8.307-8.135-13.472-19.463-13.472-32 0-12.55 5.171-23.872 13.472-32h-103.75c8.307 8.128 13.472 19.45 13.472 32 0 12.537-5.171 23.865-13.472 32h103.75zM169.408 247.802c10.585 0 19.2-8.614 19.2-19.2s-8.614-19.2-19.2-19.2-19.2 8.615-19.2 19.2 8.608 19.2 19.2 19.2zM412.582 299.001h-319.974c-3.533 0-6.394-2.861-6.4-6.387l-0.224-153.6c0-1.702 0.665-3.334 1.869-4.538s2.829-1.875 4.531-1.875h62.624c1.401 0 2.765 0.461 3.879 1.312l31.859 24.288h123.52l32.621-24.339c1.107-0.813 2.445-1.261 3.827-1.261h61.875c3.539 0 6.4 2.861 6.4 6.4v153.6c-0.007 3.533-2.867 6.4-6.406 6.4zM406.183 145.401h-53.351l-32.621 24.327c-1.107 0.825-2.445 1.274-3.827 1.274h-127.808c-1.401 0-2.765-0.461-3.879-1.312l-31.859-24.288h-54.048l0.205 140.8h307.181v-140.8z" />
<glyph unicode="&#xe604;" d="M253.369 372.147c-77.747 0-140.8-63.040-140.8-140.8 0-77.747 63.053-140.787 140.8-140.787 77.76 0 140.8 63.040 140.8 140.787 0 77.766-63.040 140.8-140.8 140.8zM253.369 116.16c-63.52 0-115.2 51.673-115.2 115.187 0 63.526 51.68 115.2 115.2 115.2s115.2-51.673 115.2-115.2c0-63.507-51.68-115.187-115.2-115.187zM253.376 320.947c-49.478 0-89.607-40.115-89.607-89.6 0-49.472 40.128-89.587 89.606-89.587s89.594 40.115 89.594 89.587c0 49.491-40.115 89.6-89.594 89.6zM253.376 167.36c-35.296 0-64.006 28.697-64.006 63.987s28.71 64 64.007 64c35.289 0 63.993-28.71 63.993-64s-28.704-63.987-63.993-63.987zM253.376 269.747c-21.203 0-38.406-17.19-38.406-38.4 0-21.203 17.203-38.4 38.406-38.4s38.393 17.203 38.393 38.4c0 21.216-17.19 38.4-38.394 38.4zM253.376 218.547c-7.066 0-12.806 5.747-12.806 12.8 0 7.065 5.741 12.8 12.806 12.8 7.059 0 12.794-5.734 12.794-12.8 0-7.047-5.741-12.8-12.793-12.8zM374.547 82.451c43.207 35.2 70.816 88.826 70.816 148.903 0 106.035-85.965 192-192 192s-192-85.965-192-192c0-60.077 27.603-113.689 70.803-148.889l-30.016-42.022c-4.115-5.747-2.784-13.735 2.976-17.849 2.253-1.613 4.851-2.387 7.424-2.387 3.993 0 7.93 1.863 10.425 5.363l30.061 42.074c29.203-17.926 63.552-28.288 100.326-28.288 36.768 0 71.111 10.349 100.313 28.275l30.048-42.061c2.496-3.501 6.432-5.363 10.425-5.363 2.573 0 5.178 0.774 7.424 2.387 5.753 4.115 7.085 12.103 2.976 17.849l-30.003 42.010zM86.969 231.347c0 91.751 74.65 166.4 166.4 166.4s166.4-74.649 166.4-166.4-74.649-166.4-166.4-166.4-166.4 74.649-166.4 166.4z" />
<glyph unicode="&#xe605;" d="M389.702 319.865c-14.137 0-25.594-25.798-25.594-57.6 0-31.814 11.456-57.6 25.594-57.6s25.606 25.786 25.606 57.6c0 31.795-11.469 57.6-25.606 57.6zM389.702 217.536c-3.776 1.798-12.793 17.274-12.793 44.723s9.017 42.912 12.793 44.723c3.776-1.798 12.807-17.274 12.807-44.723 0-27.463-9.037-42.925-12.807-44.723zM460.103 262.265c0 81.235-31.469 147.098-70.323 147.2-0.026 0-0.045 0-0.070 0h-269.011c-0.109 0-0.205-0.026-0.314-0.026-38.637-0.615-69.856-66.253-69.856-147.175v0 0-211.149c0-5.178 3.117-9.837 7.898-11.827 1.587-0.653 3.251-0.973 4.902-0.973 3.335 0 6.599 1.299 9.049 3.75l29.35 29.351 29.351-29.351c4.999-4.998 13.101-4.998 18.099 0l29.351 29.351 29.338-29.337c4.999-4.998 13.101-4.998 18.099 0l29.338 29.337 29.35-29.351c4.998-4.998 13.101-4.998 18.099 0l38.4 38.4c2.4 2.4 3.75 5.664 3.75 9.050v25.549h44.762c0.013 0 0.026 0 0.038 0 0.019 0 0.038 0 0.064 0h0.339c0.128 0 0.25 0.038 0.377 0.038 38.522 0.87 69.619 66.394 69.619 147.161zM293.702 69.209l-29.351 29.351c-4.998 4.998-13.101 4.998-18.099 0l-29.338-29.337-29.338 29.337c-4.999 4.998-13.101 4.998-18.099 0l-29.351-29.351-29.35 29.351c-4.998 4.998-13.101 4.998-18.099 0l-16.55-16.55v173.856h0.147c-0.045 2.137-0.147 4.211-0.147 6.4 0 75.085 28.736 121.152 44.576 121.562v0.038h229.325c-18.547-26.502-30.726-71.072-30.726-121.6v0-25.6h-44.781c-3.539 0-6.4-2.861-6.4-6.4s2.861-6.4 6.4-6.4h44.781v-129.049l-25.6-25.606zM389.721 140.666h-44.819v115.2h0.147c-0.045 2.137-0.147 4.211-0.147 6.4 0 75.437 29.005 121.6 44.8 121.6s44.8-46.163 44.8-121.6c0-75.417-28.992-121.568-44.781-121.6zM140.128 236.666h-44.8c-3.539 0-6.4-2.861-6.4-6.4s2.861-6.4 6.4-6.4h44.8c3.539 0 6.4 2.861 6.4 6.4s-2.867 6.4-6.4 6.4zM229.702 236.666h-44.8c-3.539 0-6.4-2.861-6.4-6.4s2.861-6.4 6.4-6.4h44.8c3.539 0 6.4 2.861 6.4 6.4s-2.867 6.4-6.4 6.4z" />
<glyph unicode="&#xe606;" d="M460.653 424.563c-2.797 2.803-6.701 4.135-10.649 3.648-9.651-1.209-237.594-30.739-335.84-118.861-2.599-2.285-5.159-4.64-7.654-7.136-60.851-60.851-63.706-158.022-8.665-222.349l-39.296-39.289c-4.998-4.998-4.998-13.101 0-18.099 2.502-2.502 5.773-3.75 9.050-3.75s6.547 1.248 9.049 3.75l39.29 39.289c29.651-25.427 66.976-39.334 106.458-39.334 0.006 0 0.006 0 0.013 0 43.77 0 84.928 17.050 115.885 48 2.496 2.502 4.864 5.063 7.065 7.577 88.185 98.323 117.728 326.265 118.938 335.923 0.499 3.904-0.851 7.84-3.642 10.63zM326.221 95.002c-1.939-2.202-3.93-4.377-6.029-6.477-26.118-26.112-60.845-40.499-97.779-40.499h-0.013c-32.647 0-63.533 11.277-88.301 31.897l47.552 47.552h129.126c7.065 0 12.8 5.735 12.8 12.8 0 7.072-5.735 12.8-12.8 12.8h-103.526l70.4 70.4 77.927 0.013c7.065 0 12.8 5.728 12.8 12.8 0 7.065-5.735 12.8-12.8 12.8l-52.327-0.013 80.563 80.563c4.998 4.999 4.998 13.101 0 18.099s-13.101 4.998-18.099 0l-80.537-80.537v52.275c0 7.065-5.735 12.8-12.8 12.8s-12.8-5.734-12.8-12.8v-77.875l-70.375-70.375v103.45c0 7.065-5.734 12.8-12.8 12.8s-12.8-5.735-12.8-12.8v-129.050l-47.59-47.591c-45.094 54.285-42.266 135.213 8.582 186.061 2.112 2.112 4.295 4.115 6.573 6.125 77.664 69.651 250.777 101.581 305.274 110.144-8.57-54.503-40.499-227.629-110.221-305.363z" />
<glyph unicode="&#xe607;" d="M253.913 426.573c-113.101 0-204.8-91.686-204.8-204.8 0-113.101 91.699-204.8 204.8-204.8 113.107 0 204.8 91.699 204.8 204.8 0 113.113-91.693 204.8-204.8 204.8zM253.913 42.573c-98.81 0-179.2 80.39-179.2 179.2s80.391 179.2 179.2 179.2 179.2-80.39 179.2-179.2-80.391-179.2-179.2-179.2zM255.091 157.773h18.055c6.714 0 12.288 5.19 12.768 11.885l12.8 179.2c0.25 3.539-0.979 7.027-3.399 9.625-2.425 2.599-5.811 4.089-9.37 4.089h-64c-3.559 0-6.944-1.485-9.369-4.089-2.419-2.599-3.648-6.087-3.399-9.625l12.8-179.2c0.48-6.701 6.054-11.885 12.768-11.885h18.496c-24.269-0.499-43.872-20.365-43.872-44.749 0-24.711 20.102-44.813 44.8-44.813s44.8 20.103 44.8 44.813c0 24.39-19.61 44.25-43.879 44.749zM235.699 336.973h36.499l-10.969-153.6h-14.56l-10.97 153.6zM254.169 93.811c-10.585 0-19.2 8.627-19.2 19.213s8.614 19.187 19.2 19.187 19.2-8.601 19.2-19.187-8.615-19.213-19.2-19.213z" />
<glyph unicode="&#xe608;" d="M381.017 271.987v3.872c0 57.978-47.161 105.139-105.139 105.139h-45.728c-57.977 0-105.139-47.161-105.139-105.139v-3.872c-42.713-2.227-76.8-37.561-76.8-80.813v-49.088c0-44.672 36.352-81.037 81.030-81.037h8.57c7.065 0 12.8 5.735 12.8 12.8v172.749c15.699 0 24.614 8.237 25.498 23.097h0.077v1.037c0.013 0.461 0.102 0.889 0.102 1.363h-0.096v3.763c0 29.734 24.192 53.939 53.939 53.939h45.728c29.741 0 53.939-24.199 53.939-53.939v-4.064h0.026c0.115-16.211 9.178-25.165 25.575-25.19v-172.762c0-7.065 5.735-12.8 12.8-12.8h8.57c44.678 0 81.031 36.365 81.031 81.037v49.088c-0.007 43.245-34.080 78.579-76.781 80.819zM125.017 86.81c-28.595 2.176-51.2 26.137-51.2 55.277v49.088c0 29.139 22.605 53.101 51.2 55.277v-159.642zM342.592 272.102v3.763c0 36.8-29.939 66.739-66.739 66.739h-45.728c-36.8 0-66.739-29.939-66.739-66.739v-5.664c-0.493-7.789-4.089-10.803-12.774-10.803v0 16.461c0 43.936 35.609 79.539 79.539 79.539h45.728c43.923 0 79.539-35.603 79.539-79.539v-16.211c0-0.089-0.026-0.16-0.026-0.25-9.325 0.025-12.8 3.475-12.8 12.704zM432.192 142.087c0-29.139-22.605-53.101-51.2-55.277v159.642c28.595-2.176 51.2-26.137 51.2-55.277v-49.088z" />
<glyph unicode="&#xe609;" d="M293.715 362.899c17.671 0 32 14.336 32 32 0 17.677-14.329 32-32 32s-32-14.323-32-32c0-17.664 14.329-32 32-32zM293.715 414.099c10.586 0 19.2-8.614 19.2-19.2s-8.615-19.2-19.2-19.2-19.2 8.614-19.2 19.2 8.608 19.2 19.2 19.2zM223.296 343.776c14.125 0 25.594 11.463 25.594 25.6s-11.469 25.587-25.594 25.587c-14.137 0-25.607-11.45-25.607-25.587s11.469-25.6 25.607-25.6zM223.296 382.163c7.059 0 12.793-5.728 12.793-12.787 0-7.053-5.734-12.8-12.793-12.8-7.065 0-12.806 5.747-12.806 12.8 0 7.059 5.741 12.787 12.806 12.787zM403.002 58.95l-102.912 128.601v117.773h0.026c7.065 0 12.8 5.728 12.8 12.8 0 7.065-5.735 12.8-12.8 12.8h-89.625c-7.065 0-12.8-5.734-12.8-12.8 0-7.072 5.734-12.8 12.8-12.8v-117.088l-103.463-129.286c-6.15-7.687-7.347-18.214-3.085-27.085 4.263-8.864 13.229-14.515 23.072-14.515h256c9.843 0 18.81 5.651 23.072 14.515 4.262 8.87 3.065 19.399-3.085 27.085zM236.089 179.251v126.073h38.4v-126.765l36.864-46.061h-112.678l37.415 46.752zM127.014 42.95l51.174 63.949h153.651l51.175-63.949h-256z" />
<glyph unicode="&#xe60a;" d="M450.317 303.411l-192 70.413c-2.848 1.037-5.965 1.037-8.813 0l-192-70.413c-5.043-1.849-8.397-6.649-8.397-12.013 0-5.376 3.347-10.176 8.397-12.026l10.803-3.962v-158.528c-3.814-2.227-6.4-6.298-6.4-11.027v-25.613c0-7.065 5.735-12.8 12.8-12.8s12.8 5.735 12.8 12.8v25.613c0 4.723-2.585 8.8-6.4 11.027v153.843l38.374-14.073v-99.603c0-49.485 40.115-89.6 89.6-89.6h89.6c49.485 0 89.6 40.115 89.6 89.6v99.591l62.029 22.739c5.043 1.849 8.397 6.649 8.397 12.025 0.007 5.357-3.347 10.157-8.39 12.006zM362.688 157.050c0-35.289-28.711-64-64-64h-89.6c-35.29 0-64 28.711-64 64v90.214l104.416-38.272c1.427-0.525 2.912-0.787 4.403-0.787s2.983 0.262 4.403 0.787l104.371 38.266v-90.208zM253.913 234.637l-154.816 56.762 154.816 56.774 154.816-56.774-154.816-56.762z" />
<glyph unicode="&#xe60b;" d="M424.576 394.087c-21.241 21.248-49.082 31.872-76.928 31.872v-25.6c22.221 0 43.104-8.666 58.822-24.377 32.435-32.435 32.435-85.222 0-117.664l-85.984-85.978-95.034 95.040 58.829 58.835c2.502 2.502 2.502 6.547 0 9.049s-6.547 2.502-9.050 0l-58.829-58.835-13.581 13.587 85.99 85.978c15.712 15.712 36.608 24.377 58.829 24.377l0.007 25.6h-0.007c-27.846-0.013-55.687-10.624-76.935-31.872l-190.067-190.074c-42.489-42.49-42.489-111.385 0-153.875 21.242-21.235 49.088-31.865 76.935-31.865s55.693 10.624 76.935 31.865l190.067 190.073c42.49 42.489 42.49 111.373 0 153.863zM216.403 68.262c-15.719-15.725-36.614-24.377-58.835-24.377s-43.117 8.653-58.829 24.365c-32.435 32.448-32.435 85.222 0 117.677l85.99 85.99 13.581-13.587-31.686-31.686c-2.502-2.502-2.502-6.547 0-9.049 1.248-1.248 2.887-1.875 4.525-1.875s3.277 0.627 4.525 1.875l31.686 31.686 95.027-95.040-85.984-85.978zM347.648 425.965v0 0zM112.32 172.339c-19.021-19.014-24.102-48.16-12.647-72.537 1.094-2.31 3.392-3.673 5.799-3.673 0.915 0 1.837 0.199 2.72 0.615 3.2 1.498 4.57 5.312 3.066 8.512-9.177 19.501-5.114 42.822 10.106 58.035 2.502 2.502 2.502 6.547 0 9.050s-6.547 2.496-9.043 0zM302.387 362.413c-2.502-2.502-2.502-6.547 0-9.050 1.248-1.248 2.887-1.875 4.525-1.875s3.277 0.627 4.525 1.875c15.219 15.226 38.547 19.277 58.041 10.112 3.207-1.511 7.014-0.128 8.519 3.065 1.498 3.2 0.135 7.014-3.065 8.512-24.365 11.475-53.523 6.387-72.544-12.64z" />
<glyph unicode="&#xe60c;" d="M291.43 337.351v-166.080c0-21.178-17.223-38.4-38.4-38.4s-38.4 17.223-38.4 38.4v166.080h-115.2v-166.4c0-84.839 68.768-153.6 153.6-153.6s153.6 68.762 153.6 153.6v166.4h-115.2zM381.031 311.75v-38.451h-64v38.451h64zM189.030 311.75v-38.451h-64v38.451h64zM253.030 42.95c-70.579 0-128 57.414-128 128v76.749h64v-76.422c0-35.289 28.71-64 64-64s64 28.711 64 64v76.423h64v-76.749c0-70.586-57.421-128-128-128zM364.442 371.955l-51.2 51.2c-2.419 2.419-5.632 3.751-9.050 3.751s-6.63-1.331-9.050-3.751l-42.137-42.131-42.137 42.131c-2.419 2.419-5.632 3.751-9.049 3.751s-6.631-1.331-9.049-3.751l-51.2-51.2c-4.992-4.992-4.992-13.107 0-18.105 2.419-2.413 5.632-3.75 9.049-3.75s6.631 1.337 9.049 3.75l42.15 42.15 42.138-42.137c2.419-2.413 5.632-3.75 9.049-3.75s6.631 1.338 9.049 3.75l42.137 42.137 42.151-42.15c2.419-2.413 5.632-3.75 9.050-3.75s6.63 1.337 9.050 3.75c4.998 4.999 4.998 13.114 0 18.106z" />
<glyph unicode="&#xe60d;" d="M439.501 222.099c0 17.939-2.592 35.251-7.334 51.648 16.377 16.25 26.534 38.727 26.534 63.559 0 49.401-40.199 89.594-89.606 89.594-24.819 0-47.251-10.189-63.481-26.553-16.416 4.755-33.753 7.353-51.712 7.353-17.927 0-35.232-2.592-51.623-7.334-16.243 16.371-38.726 26.534-63.559 26.534-49.401 0-89.594-40.192-89.594-89.594 0-24.819 10.176-47.257 26.535-63.495-4.755-16.423-7.353-33.76-7.353-51.712 0-60.089 28.582-113.472 72.858-147.386l-22.291-38.099c-3.578-6.099-1.523-13.939 4.576-17.51 2.035-1.19 4.263-1.747 6.458-1.747 4.403 0 8.672 2.265 11.059 6.336l21.587 36.877c26.982-15.289 58.138-24.064 91.36-24.064 32.25 0 62.567 8.237 88.992 22.701l20.793-35.514c2.381-4.077 6.656-6.336 11.059-6.336 2.195 0 4.423 0.563 6.457 1.747 6.099 3.577 8.147 11.411 4.576 17.51l-21.318 36.409c45.517 33.824 75.027 88 75.027 149.075zM369.094 401.305c35.296 0 64.007-28.704 64.007-63.993 0-13.401-4.224-25.779-11.315-36.058-18.375 38.906-49.863 70.387-88.768 88.755 10.285 7.072 22.675 11.296 36.077 11.296zM74.727 337.312c0 35.289 28.704 63.993 63.993 63.993 13.395 0 25.773-4.224 36.051-11.302-38.931-18.381-70.425-49.888-88.793-88.826-7.079 10.291-11.251 22.726-11.251 36.135zM253.901 62.099c-88.224 0-160 71.776-160 160 0 88.231 71.776 160 160 160s160-71.776 160-160c0-88.224-71.776-160-160-160zM253.901 356.505c-7.065 0-12.8-5.735-12.8-12.8v-116.301l-66.649-66.656c-4.999-4.998-4.999-13.101 0-18.099 2.502-2.502 5.773-3.75 9.049-3.75s6.547 1.248 9.049 3.75l70.4 70.4c2.4 2.4 3.75 5.664 3.75 9.050v121.6c0 7.072-5.735 12.807-12.8 12.807z" />
<glyph unicode="&#xe60e;" d="M144.288 292.499v-15.187c-4.717 1.325-9.632 2.125-14.714 2.125-7.302 0-14.445-1.44-21.229-4.25-13.683-5.677-24.339-16.339-30.003-30.023s-5.651-28.762 0.025-42.438l15.040-36.262c8.621-20.774 28.73-34.214 51.239-34.214 0.922 0 1.831 0.128 2.745 0.173 10.464-40.288 47.034-70.163 90.541-70.163h100.711c51.635 0 93.645 42.010 93.645 93.651v136.589h-288zM144.288 157.875c-11.975 0.147-22.637 7.328-27.232 18.4l-15.046 36.262c-3.059 7.36-3.059 15.475-0.013 22.835 3.053 7.36 8.787 13.113 16.153 16.16 3.661 1.523 7.507 2.298 11.417 2.298 5.325 0 10.31-1.549 14.714-4.089v-91.865zM406.688 155.911c0-37.523-30.528-68.051-68.045-68.051h-100.71c-37.517 0-68.045 30.528-68.045 68.051v110.989h236.8v-110.989zM419.488 42.95h-262.4c-7.065 0-12.8-5.728-12.8-12.8 0-7.065 5.734-12.8 12.8-12.8h262.4c7.065 0 12.8 5.735 12.8 12.8 0 7.072-5.735 12.8-12.8 12.8zM248.736 324.281c-3.417-6.195-1.171-13.978 5.024-17.395 1.958-1.075 4.083-1.593 6.17-1.593 4.512 0 8.889 2.393 11.219 6.617 13.677 24.787 6.118 44.455 0.051 60.256-5.76 15.002-8.416 23.367-0.928 35.002 3.827 5.945 2.112 13.869-3.834 17.696-5.939 3.821-13.856 2.112-17.696-3.834-14.874-23.097-7.43-42.477-1.446-58.048 5.44-14.131 9.363-24.339 1.44-38.701zM306.087 324.691c-3.635-6.061-1.677-13.927 4.384-17.562 2.061-1.235 4.339-1.831 6.579-1.831 4.346 0 8.582 2.221 10.989 6.215 13.28 22.112 5.504 37.491 0.365 47.667-4.486 8.877-6.534 12.935-0.723 22.854 3.577 6.099 1.523 13.939-4.576 17.511-6.087 3.571-13.945 1.529-17.51-4.576-12.87-21.965-5.146-37.235-0.032-47.347 4.48-8.883 6.534-12.935 0.525-22.931zM368.493 120.327c1.203 0 2.425 0.339 3.507 1.050 13.843 9.075 22.106 24.352 22.106 40.864v66.272c0 3.526-2.861 6.4-6.4 6.4s-6.4-2.874-6.4-6.4v-66.272c0-12.185-6.106-23.462-16.333-30.163-2.957-1.939-3.776-5.913-1.837-8.864 1.229-1.875 3.271-2.887 5.357-2.887z" />
<glyph unicode="&#xe60f;" d="M369.113 426.931h-230.4c-21.203 0-38.4-17.197-38.4-38.4v-332.8c0-21.203 17.197-38.4 38.4-38.4h230.4c21.203 0 38.4 17.203 38.4 38.4v332.8c0 21.203-17.197 38.4-38.4 38.4zM381.913 55.725c0-7.053-5.741-12.8-12.8-12.8h-230.4c-7.059 0-12.8 5.747-12.8 12.8v332.8c0 7.059 5.741 12.8 12.8 12.8h230.4c7.059 0 12.8-5.741 12.8-12.8v-332.8zM343.488 362.931h-179.2c-7.065 0-12.8-5.734-12.8-12.8v-51.2c0-7.065 5.734-12.8 12.8-12.8h179.2c7.065 0 12.8 5.735 12.8 12.8v51.2c0 7.065-5.735 12.8-12.8 12.8zM343.488 298.925h-179.2v51.2h179.2v-51.2zM228.294 241.325h-12.8v12.8c0 7.072-5.734 12.8-12.8 12.8s-12.8-5.728-12.8-12.8v-12.8h-12.806c-7.065 0-12.8-5.728-12.8-12.8 0-7.065 5.734-12.8 12.8-12.8h12.806v-12.8c0-7.072 5.734-12.8 12.8-12.8s12.8 5.728 12.8 12.8v12.8h12.8c7.066 0 12.8 5.735 12.8 12.8 0 7.072-5.734 12.8-12.8 12.8zM236.243 159.763c-4.999 4.998-13.101 4.998-18.099 0l-15.45-15.45-15.456 15.462c-4.999 4.998-13.101 4.998-18.099 0s-4.999-13.113 0-18.099l15.456-15.462-15.456-15.45c-4.999-4.998-4.999-13.101 0-18.099 2.502-2.502 5.773-3.75 9.049-3.75s6.547 1.248 9.049 3.75l15.456 15.45 15.45-15.45c2.502-2.502 5.773-3.75 9.049-3.75s6.547 1.248 9.049 3.75c4.999 4.998 4.999 13.101 0 18.099l-15.45 15.45 15.45 15.45c4.999 4.998 4.999 13.101 0 18.099zM330.688 241.325h-51.207c-7.065 0-12.8-5.728-12.8-12.8 0-7.065 5.735-12.8 12.8-12.8h51.207c7.065 0 12.8 5.735 12.8 12.8 0 7.072-5.735 12.8-12.8 12.8zM339.488 160.653c-4.998 4.998-13.101 4.998-18.099 0l-51.065-51.065c-4.998-4.998-4.998-13.101 0-18.099 2.502-2.502 5.773-3.75 9.050-3.75s6.547 1.248 9.050 3.75l51.065 51.065c4.998 4.998 4.998 13.094 0 18.099zM292.288 151.738c0-7.062-5.725-12.787-12.787-12.787-7.062 0-12.787 5.725-12.787 12.787 0 7.062 5.725 12.787 12.787 12.787 7.062 0 12.787-5.725 12.787-12.787zM343.481 100.538c0-7.062-5.725-12.787-12.787-12.787-7.062 0-12.787 5.725-12.787 12.787 0 7.062 5.725 12.787 12.787 12.787 7.062 0 12.787-5.725 12.787-12.787z" />
<glyph unicode="&#xe610;" d="M355.769 426.931h-204.8c-21.203 0-38.4-17.197-38.4-38.4v-332.8c0-21.203 17.197-38.4 38.4-38.4h204.8c21.203 0 38.4 17.203 38.4 38.4v332.8c0 21.203-17.197 38.4-38.4 38.4zM368.57 55.725c0-7.053-5.741-12.8-12.8-12.8h-204.8c-7.059 0-12.8 5.747-12.8 12.8v332.8c0 7.059 5.741 12.8 12.8 12.8h204.8c7.059 0 12.8-5.741 12.8-12.8v-332.8zM170.195 196.525h166.4c3.539 0 6.4 2.861 6.4 6.4v166.4c0 3.533-2.861 6.4-6.4 6.4h-166.4c-3.539 0-6.4-2.867-6.4-6.4v-166.4c0-3.539 2.861-6.4 6.4-6.4zM176.595 362.925h153.6v-153.6h-153.6v153.6zM202.169 119.725h12.8c7.066 0 12.8 5.735 12.8 12.8s-5.734 12.8-12.8 12.8h-12.8v12.8c0 7.065-5.734 12.8-12.8 12.8s-12.8-5.735-12.8-12.8v-12.8h-12.8c-7.066 0-12.8-5.735-12.8-12.8s5.734-12.8 12.8-12.8h12.8v-12.8c0-7.065 5.734-12.8 12.8-12.8s12.8 5.735 12.8 12.8v12.8zM330.17 183.725c-14.137 0-25.6-11.462-25.6-25.6s11.462-25.6 25.6-25.6 25.6 11.462 25.6 25.6-11.462 25.6-25.6 25.6zM330.17 145.325c-7.059 0-12.8 5.735-12.8 12.8s5.741 12.8 12.8 12.8 12.8-5.735 12.8-12.8-5.747-12.8-12.8-12.8zM285.267 145.325c-14.137 0-25.6-11.462-25.6-25.6s11.462-25.6 25.6-25.6 25.6 11.462 25.6 25.6-11.462 25.6-25.6 25.6zM285.267 106.925c-7.059 0-12.8 5.735-12.8 12.8s5.741 12.8 12.8 12.8 12.8-5.735 12.8-12.8-5.741-12.8-12.8-12.8zM227.769 81.376h-12.8c-7.065 0-12.8-5.728-12.8-12.8 0-7.065 5.734-12.8 12.8-12.8h12.8c7.065 0 12.8 5.735 12.8 12.8 0 7.072-5.734 12.8-12.8 12.8zM278.969 81.376h-12.8c-7.065 0-12.8-5.728-12.8-12.8 0-7.065 5.735-12.8 12.8-12.8h12.8c7.065 0 12.8 5.735 12.8 12.8 0 7.072-5.735 12.8-12.8 12.8z" />
<glyph unicode="&#xe611;" d="M458.701 217.178c0 7.065-5.735 12.8-12.8 12.8h-195.168l134.413 134.413c4.998 4.998 4.998 13.101 0 18.106-2.131 2.131-4.832 3.296-7.616 3.609-45.261 12.743-95.853 1.536-131.469-34.087-33.159-33.159-45.248-79.302-36.487-122.041h-45.325c8.051 10.701 12.883 23.968 12.883 38.394 0 35.347-28.659 64-64 64s-64-28.653-64-64 28.659-64 64-64c0.045 0 0.083 0.007 0.128 0.007h75.667l-57.126-57.133c-0.025-0.019-0.051-0.038-0.071-0.058-24.992-24.992-24.992-65.51 0-90.515 12.493-12.493 28.877-18.745 45.255-18.745s32.762 6.253 45.255 18.745c24.986 24.992 24.992 65.51 0 90.515-10.202 10.202-22.995 16.16-36.256 18.035l38.797 38.803c23.693-38.157 65.805-63.648 114.016-63.648 50.375 0 94.061 27.84 117.063 68.858 1.753 2.189 2.841 4.921 2.841 7.942zM264.154 333.913c23.424 23.424 54.938 33.779 85.625 31.315l-116.935-116.941c-2.47 30.688 7.885 62.202 31.309 85.626zM74.727 268.371c0 21.178 17.222 38.4 38.4 38.4s38.4-17.223 38.4-38.4c0-21.133-17.165-38.323-38.272-38.393h-0.128c-0.013 0-0.025-0.006-0.045-0.006-21.159 0.025-38.355 17.235-38.355 38.4zM176.986 140.333c10.259 0 19.898-3.993 27.155-11.251 14.97-14.969 14.97-39.334 0-54.298-7.257-7.257-16.903-11.251-27.155-11.251s-19.898 3.993-27.155 11.251c-7.251 7.251-11.245 16.896-11.245 27.149 0 10.247 3.987 19.865 11.213 27.117 0.013 0.013 0.025 0.019 0.038 0.026l0.096 0.103c7.245 7.193 16.845 11.155 27.053 11.155zM338.803 165.978c-33.127 0-62.739 14.957-82.688 38.4h165.376c-19.955-23.443-49.568-38.4-82.688-38.4z" />
<glyph unicode="&#xe612;" d="M151.526 196.486v192.045c0 21.203-17.197 38.4-38.4 38.4s-38.4-17.197-38.4-38.4v-192.038c-15.52-11.673-25.6-30.189-25.6-51.111 0-20.915 10.080-39.437 25.6-51.111v-38.534c0-21.203 17.197-38.4 38.4-38.4s38.4 17.203 38.4 38.4v38.534c15.52 11.673 25.6 30.202 25.6 51.111 0 20.915-10.080 39.43-25.6 51.104zM100.326 388.531c0 7.059 5.741 12.8 12.8 12.8s12.8-5.741 12.8-12.8v-180.441c-4.135 0.851-8.409 1.286-12.8 1.286s-8.665-0.435-12.8-1.286v180.442zM125.927 55.725c0-7.053-5.741-12.8-12.8-12.8s-12.8 5.747-12.8 12.8v26.938c4.135-0.839 8.409-1.286 12.8-1.286s8.665 0.448 12.8 1.286v-26.938zM113.126 106.976c-21.177 0-38.4 17.223-38.4 38.4s17.222 38.4 38.4 38.4 38.4-17.223 38.4-38.4-17.229-38.4-38.4-38.4zM458.701 170.976c0 20.928-10.080 39.437-25.6 51.117v166.439c0 21.203-17.197 38.4-38.4 38.4s-38.4-17.197-38.4-38.4v-166.439c-15.52-11.68-25.6-30.189-25.6-51.117 0-20.915 10.080-39.437 25.6-51.111v-64.135c0-21.203 17.197-38.4 38.4-38.4s38.4 17.203 38.4 38.4v64.135c15.52 11.673 25.6 30.195 25.6 51.111zM381.901 388.531c0 7.059 5.741 12.8 12.8 12.8s12.8-5.741 12.8-12.8v-154.835c-4.135 0.845-8.409 1.286-12.8 1.286s-8.666-0.441-12.8-1.286v154.835zM407.501 55.725c0-7.053-5.741-12.8-12.8-12.8s-12.8 5.747-12.8 12.8v52.538c4.135-0.839 8.409-1.286 12.8-1.286s8.666 0.448 12.8 1.286v-52.538zM394.701 132.576c-21.178 0-38.4 17.223-38.4 38.4s17.223 38.4 38.4 38.4 38.4-17.223 38.4-38.4-17.229-38.4-38.4-38.4zM292.301 350.035v38.496c0 21.203-17.197 38.4-38.4 38.4s-38.4-17.197-38.4-38.4v-38.496c-15.52-11.673-25.6-30.189-25.6-51.104 0-20.921 10.080-39.437 25.6-51.117v-192.089c0-21.203 17.197-38.4 38.4-38.4s38.4 17.203 38.4 38.4v192.089c15.52 11.68 25.6 30.195 25.6 51.117 0 20.915-10.080 39.43-25.6 51.104zM241.101 388.531c0 7.059 5.741 12.8 12.8 12.8s12.8-5.741 12.8-12.8v-26.887c-4.135 0.839-8.409 1.287-12.8 1.287s-8.666-0.448-12.8-1.287v26.887zM266.701 55.725c0-7.053-5.741-12.8-12.8-12.8s-12.8 5.747-12.8 12.8v180.487c4.135-0.839 8.41-1.28 12.8-1.28s8.666 0.441 12.8 1.28v-180.487zM253.901 260.531c-21.178 0-38.4 17.223-38.4 38.4 0 21.171 17.222 38.4 38.4 38.4s38.4-17.229 38.4-38.4c0-21.178-17.229-38.4-38.4-38.4z" />
<glyph unicode="&#xe613;" d="M404.173 393.088c-4.87 1.523-9.901 2.298-14.969 2.298-7.065 0-13.779-1.529-19.917-4.231v35.75h-230.4v-35.904c-6.233 2.803-13.075 4.391-20.269 4.391-5.069 0-10.099-0.774-14.969-2.298-26.361-8.256-41.107-36.416-32.871-62.777l14.861-47.469c6.585-21.024 25.799-35.149 47.808-35.149 4.653 0 9.255 0.73 13.741 2.010 15.488-38.624 51.213-66.912 94.099-71.661v-77.498h-19.2c-39.648 0-72.499-29.728-76.409-69.139l-1.401-14.061h219.623l-1.401 14.061c-3.911 39.411-36.762 69.139-76.409 69.139h-19.2v77.498c42.861 4.749 78.567 32.986 94.067 71.577 4.39-1.222 8.883-1.939 13.421-1.939 22.003 0 41.216 14.125 47.808 35.149l14.861 47.469c8.237 26.368-6.509 54.528-32.87 62.784zM133.453 273.293c-10.758 0-20.154 6.912-23.379 17.203l-14.855 47.463c-4.025 12.889 3.187 26.669 16.083 30.707 2.387 0.743 4.851 1.127 7.328 1.127 8.333 0 15.808-4.173 20.269-10.81v-66.471c0-6.195 0.627-12.231 1.568-18.157-2.298-0.697-4.653-1.063-7.014-1.063zM286.087 74.95c21.453 0 39.917-13.050 47.507-32h-159.014c7.59 18.95 26.054 32 47.507 32h64zM343.687 292.505c0-49.408-40.192-89.6-89.6-89.6s-89.6 40.198-89.6 89.6v108.8h179.2v-108.8zM412.615 337.952l-14.854-47.462c-3.226-10.285-12.627-17.203-23.379-17.203-2.253 0-4.486 0.358-6.669 0.973 0.947 5.958 1.581 12.019 1.581 18.24v67.053c4.499 6.31 11.827 10.233 19.917 10.233 2.477 0 4.935-0.384 7.328-1.127 12.889-4.038 20.103-17.817 16.077-30.707zM279.719 227.482c0.858 0 1.735 0.173 2.567 0.544 25.594 11.264 42.125 36.57 42.125 64.467 0 3.533-2.861 6.4-6.4 6.4s-6.4-2.867-6.4-6.4c0-22.829-13.529-43.533-34.477-52.749-3.238-1.427-4.704-5.203-3.283-8.435 1.063-2.393 3.405-3.827 5.869-3.827z" />
<glyph unicode="&#xe614;" d="M457.581 258.765l-19.149 51.065v32.135l-17.959 44.8c-3.034 7.565-12.358 18.477-25.504 19.2h-282.963c-13.894 0-24.051-12.16-26.861-19.175l-17.913-44.825c0 0 0-20.672 0-31.949v-0.051h-0.025l-19.225-51.2h0.026v-13.837c0-14.375 7.725-26.925 19.226-33.811v-131.501c0-21.209 17.197-38.4 38.4-38.4h294.4c21.203 0 38.4 17.19 38.4 38.4v131.52c11.475 6.899 19.175 19.424 19.175 33.786v13.837h-0.026zM112.275 380.365h281.351c0.921-0.391 2.592-2.087 3.085-3.123l11.654-29.075h-311.085l11.513 28.813c0.691 1.222 2.502 2.969 3.481 3.385zM92.832 310.010v25.351h320v-25.401l-320 0.051zM60.806 256.499l15.27 40.665h353.44l8.666-23.123v-46.503c-4.889-5.613-12-9.248-20.007-9.248h-0.403c-8.928 0-17.209 4.448-22.183 11.898-2.375 3.565-6.368 5.702-10.649 5.702s-8.275-2.137-10.649-5.702c-4.966-7.449-13.255-11.898-22.183-11.898h-0.403c-8.928 0-17.216 4.448-22.189 11.911-2.375 3.552-6.368 5.69-10.649 5.69h-0.007c-4.281 0-8.275-2.137-10.649-5.702-4.954-7.45-13.241-11.897-22.17-11.897h-0.403c-8.928 0-17.209 4.448-22.183 11.898-2.375 3.565-6.368 5.702-10.649 5.702s-8.281-2.137-10.649-5.702c-4.96-7.449-13.248-11.898-22.176-11.898h-0.403c-8.928 0-17.209 4.448-22.183 11.898-2.375 3.565-6.368 5.702-10.649 5.702s-8.281-2.137-10.649-5.702c-4.96-7.449-13.248-11.898-22.176-11.898h-0.41c-8.922 0-17.209 4.448-22.189 11.898-2.368 3.565-6.362 5.702-10.643 5.702h-0.007c-4.281 0-8.275-2.137-10.65-5.702-4.954-7.449-13.242-11.898-22.169-11.898h-0.403c-14.688 0-26.637 11.949-26.637 26.637v11.571zM252.781 223.053c0.006 0.013 0.019 0.026 0.025 0.038 7.066-10.599 19.129-17.6 32.832-17.6h0.403c13.709 0 25.76 7.002 32.825 17.6 7.072-10.599 19.136-17.6 32.839-17.6h0.403c8.281 0 15.936 2.586 22.272 6.95v-88.077h-121.6v98.688zM131.207 143.565h70.4v-51.149h-70.4v51.149zM201.607 156.365h-70.4v56.089c6.343-4.365 14.010-6.963 22.298-6.963h0.41c13.709 0 25.76 7.002 32.826 17.6 3.725-5.587 8.857-10.125 14.861-13.209v-53.517zM400.032 66.81h-294.4c-7.059 0-12.8 5.735-12.8 12.8v126.202c10.311 1.299 19.335 6.599 25.575 14.272v-127.673c0-7.072 5.734-12.8 12.8-12.8h70.4c7.066 0 12.8 5.728 12.8 12.8v113.427c1.696-0.224 3.411-0.352 5.171-0.352h0.403c7.322 0 14.131 2.048 20 5.51v-86.637c0-7.072 5.734-12.8 12.8-12.8h121.6c7.065 0 12.8 5.728 12.8 12.8v95.769c6.253-7.699 15.315-13.024 25.651-14.323v-126.189c0-7.065-5.747-12.807-12.8-12.807zM444.807 244.928c0-6.535-2.457-12.448-6.375-17.088v45.536l6.375-16.998v-11.45z" />
<glyph unicode="&#xe615;" d="M411.117 385.063l-15.846 15.84c-15.104 15.111-35.2 23.437-56.563 23.437-21.37 0-41.466-8.326-56.57-23.437l-95.040-95.040c-14.835-14.835-23.155-34.56-23.43-55.539-0.019-1.773 0.32-3.463 0.953-5.011l-70.106-70.125c-15.111-15.098-23.43-35.2-23.437-56.563 0-21.363 8.326-41.466 23.437-56.563l15.84-15.853c15.603-15.591 36.083-23.385 56.57-23.385s40.973 7.801 56.57 23.385l95.034 95.040c16.077 16.077 24.576 38.298 23.322 60.998-0.007 0.128-0.045 0.224-0.058 0.339l69.337 69.337c31.181 31.2 31.181 81.952-0.013 113.139zM393.017 290.023l-95.040-95.040c-21.209-21.203-55.725-21.203-76.935 0l-15.84 15.84c-4.999 4.998-13.101 4.998-18.099 0-4.999-4.986-4.999-13.101 0-18.099l15.84-15.84c15.597-15.591 36.083-23.385 56.57-23.385 17.523 0 35.027 5.747 49.485 17.165-2.355-4.089-5.19-7.911-8.582-11.315l-95.034-95.040c-21.209-21.203-55.725-21.203-76.935 0l-15.84 15.853c-10.272 10.272-15.936 23.936-15.936 38.464s5.664 28.185 15.936 38.464l95.034 95.040c21.209 21.209 55.725 21.203 76.934 0l15.84-15.84c4.998-4.999 13.101-4.999 18.099 0s4.998 13.101 0 18.099l-15.84 15.853c-28.96 28.947-74.778 30.976-106.144 6.15 2.362 4.115 5.235 7.949 8.666 11.373l95.040 95.040c10.272 10.272 23.936 15.936 38.471 15.936 14.528 0 28.185-5.664 38.464-15.936l15.846-15.84c21.209-21.216 21.209-55.725 0-76.941z" />
<glyph unicode="&#xe616;" d="M370.157 236.839c20.295 15.277 35.437 42.285 35.437 73.165 0 47.725-33.843 86.413-73.613 86.413-30.938 0-58.195-23.462-68.807-56.327-13.523 33.203-42.669 56.275-75.2 56.275-44.743 0-83.155-41.849-83.155-95.539 0-34.739 17.376-66.81 40.218-84-56.525-18.151-97.447-71.123-97.459-133.677 0.013-17.888 14.522-32.39 32.403-32.39h216.025c17.888 0 32.397 14.502 32.403 32.39 0 2.035-0.16 4.038-0.25 6.061h99.853c15.897 0 28.793 12.889 28.806 28.787-0.013 55.616-36.409 102.701-86.663 118.841zM284.384 317.235c0.115 1.19 0.269 2.361 0.435 3.539 0.211 1.414 0.461 2.81 0.762 4.198 0.147 0.736 0.288 1.498 0.467 2.227 2.969 11.923 9.017 22.637 16.774 30.637 8.205 8.102 18.381 12.973 29.159 12.973 10.733 0 20.883-4.851 29.075-12.889 7.801-8.013 13.901-18.765 16.889-30.752 0.166-0.697 0.301-1.427 0.448-2.137 0.301-1.415 0.557-2.848 0.774-4.288 0.166-1.165 0.327-2.323 0.435-3.501 0.141-1.497 0.231-3.001 0.275-4.512 0.026-0.774 0.089-1.523 0.096-2.298-0.007-0.774-0.070-1.536-0.096-2.311-0.045-1.51-0.135-3.014-0.275-4.499-0.115-1.19-0.269-2.349-0.435-3.513-0.217-1.44-0.474-2.861-0.774-4.288-0.147-0.711-0.281-1.427-0.448-2.138-2.989-11.974-9.088-22.726-16.889-30.739-8.192-8.051-18.343-12.889-29.075-12.889-10.777 0-20.947 4.877-29.159 12.973-7.757 7.987-13.805 18.701-16.774 30.624-0.179 0.736-0.32 1.485-0.467 2.227-0.301 1.389-0.55 2.803-0.762 4.211-0.166 1.165-0.327 2.336-0.435 3.539-0.141 1.472-0.231 2.976-0.275 4.486-0.026 0.762-0.089 1.523-0.096 2.311 0.007 0.774 0.070 1.536 0.096 2.31 0.038 1.517 0.128 3.014 0.275 4.499zM267.155 270.637c6.375-13.837 15.706-25.575 26.656-33.811-17.28-5.549-32.896-14.803-45.959-26.79-5.472 2.586-11.097 4.928-16.935 6.803 16.301 12.262 29.811 31.29 36.237 53.798zM131.008 291.36c0 0.013 0 0.025 0 0.038-0.391 3.123-0.589 6.265-0.589 9.414v0.013c0 0 0 0 0 0.013 0 0 0 0 0 0.013 0.006 21.625 9.511 42.074 23.059 55.635 9.779 8.96 21.817 14.272 34.502 14.272 15.744 0 30.535-8.576 41.203-22.253 8.141-11.175 14.029-25.248 15.833-39.885 0-0.013 0-0.026 0.006-0.038 0.384-3.123 0.583-6.272 0.583-9.415v-0.025c0-0.013 0-0.013 0-0.025-0.006-21.613-9.511-42.061-23.040-55.623-9.786-8.96-21.824-14.272-34.522-14.272-15.744 0-30.535 8.576-41.203 22.253-8.147 11.161-14.035 25.248-15.834 39.885zM296.007 76.365h-216.025c-3.751 0-6.803 3.053-6.803 6.791 0.013 50.074 32.032 94.003 79.686 109.299l3.155 1.011c17.133 5.498 46.24 6.803 63.975-0.013l3.104-0.998c47.667-15.289 79.699-59.213 79.712-109.286 0-3.757-3.053-6.803-6.803-6.803zM428.013 114.81h-103.271c-7.673 33.223-27.104 61.939-53.735 81.485 8.986 6.989 19.296 12.512 30.624 16.147l7.981 2.56c6.375 2.137 28.262 5.613 44.563 0.064l8.147-2.611c41.197-13.223 68.877-51.187 68.889-94.438 0.007-1.767-1.433-3.207-3.2-3.207z" />
<glyph unicode="&#xe617;" d="M419.193 427.111h-332.8c-21.203 0-38.4-17.203-38.4-38.4v-332.8c0-21.209 17.197-38.4 38.4-38.4h332.8c21.203 0 38.4 17.19 38.4 38.4v332.8c0 21.203-17.19 38.4-38.4 38.4zM431.993 388.711v-38.4h-27.213l0.538 0.224-22.291 50.976h36.166c7.059 0 12.8-5.747 12.8-12.8zM78.522 398.726c23.097-7.513 39.859-29.19 39.859-54.752 0-27.347-19.181-50.253-44.781-56.103v100.839c-0.007 4.077 1.945 7.667 4.921 10.016zM321.952 350.31l0.544 0.237-22.298 50.963h55.546l-0.544-0.237 22.291-50.963h-55.539zM294.656 350.31h-55.539l0.544 0.237-22.304 50.963h55.558l-0.55-0.25 22.291-50.95zM211.827 350.31h-68.103c-1.498 19.827-9.965 37.69-22.938 51.2h69.28l-0.55-0.25 22.31-50.95zM143.725 337.51h70.835l-23.994-51.2h-69.92c13.024 13.504 21.549 31.353 23.079 51.2zM242.829 337.51h54.567l-24.007-51.2h-54.56l24 51.2zM325.671 337.51h54.387l-23.827-51.2h-54.56l24 51.2zM408.295 337.51h23.699v-51.2h-47.526l23.827 51.2zM419.193 43.111h-332.8c-7.059 0-12.8 5.735-12.8 12.8v204.8h358.4v-204.8c0-7.059-5.741-12.8-12.8-12.8zM104.8 340.749c0-5.302-4.298-9.6-9.6-9.6s-9.6 4.298-9.6 9.6c0 5.302 4.298 9.6 9.6 9.6 5.302 0 9.6-4.298 9.6-9.6zM387.193 222.31h-275.175c-7.066 0-12.8-5.735-12.8-12.8 0-7.072 5.734-12.8 12.8-12.8h275.175c7.065 0 12.8 5.728 12.8 12.8 0 7.065-5.728 12.8-12.8 12.8zM297.594 171.098h-185.575c-7.066 0-12.8-5.728-12.8-12.8 0-7.065 5.734-12.8 12.8-12.8h185.575c7.065 0 12.8 5.735 12.8 12.8 0 7.079-5.728 12.8-12.8 12.8zM297.594 119.897h-185.575c-7.066 0-12.8-5.728-12.8-12.8 0-7.065 5.734-12.8 12.8-12.8h185.575c7.065 0 12.8 5.735 12.8 12.8 0 7.079-5.728 12.8-12.8 12.8z" />
<glyph unicode="&#xe618;" d="M457.568 197.127v28.8h-0.077c0.217 7.59-3.271 18.56-12.743 34.663-15.059 25.574-51.2 89.651-51.2 89.651-12.8 19.149-25.6 38.4-57.6 38.4h-166.355c-32 0-44.8-19.251-57.6-38.4 0 0-36.141-64.077-51.2-89.651-9.165-15.565-12.768-26.375-12.794-33.927h-0.007v-132.422c0-21.209 17.197-38.4 38.4-38.4h332.8c21.203 0 38.4 17.19 38.4 38.4v102.4c0 0.16-0.026 0.32-0.026 0.486zM82.855 247.597c14.24 24.198 46.458 81.235 50.957 89.21 12.48 18.637 18.439 26.227 35.782 26.227h166.355c17.344 0 23.303-7.59 35.783-26.227 4.499-7.975 36.717-65.011 50.957-89.209 3.13-5.312 5.209-9.465 6.586-12.627-0.442 0-0.915 0-1.401 0-1.466 0-2.918 0.013-4.327 0.025-1.498 0.025-2.95 0.038-4.352 0.038h-96c-7.245 0-11.418-2.451-12.851-6.451l-19.2-51.2c-3.635-7.462-8.038-12.8-19.175-12.8h-38.4c-13.395 0-16.73 6.4-19.226 12.8l-19.2 51.2c-2.701 6.451-10.048 6.451-12.774 6.451h-95.975c-1.415 0-2.88-0.013-4.403-0.038-1.408-0.013-2.855-0.025-4.326-0.025-0.487 0-0.954 0-1.401 0 1.382 3.168 3.463 7.315 6.592 12.627zM431.993 196.64v-102.4c0-7.065-5.741-12.8-12.8-12.8h-332.8c-7.059 0-12.8 5.735-12.8 12.8v115.149h12.339c0.153 0.013 0.307 0.051 0.461 0.051h88.589l15.513-41.344c7.526-19.315 22.010-29.101 43.072-29.101h38.4c19.207 0 33.401 9.152 42.189 27.187l0.531 1.088 0.423 1.139 15.392 41.037h88.647c0.019 0 0.032 0 0.045 0h12.8v-12.806zM175.994 311.789h153.574c7.065 0 12.8 5.728 12.8 12.8 0 7.065-5.735 12.8-12.8 12.8h-153.575c-7.065 0-12.8-5.735-12.8-12.8 0-7.079 5.734-12.8 12.8-12.8zM150.393 260.589h204.775c7.065 0 12.8 5.728 12.8 12.8 0 7.065-5.735 12.8-12.8 12.8h-204.774c-7.065 0-12.8-5.734-12.8-12.8 0-7.078 5.734-12.8 12.8-12.8z" />
<glyph unicode="&#xe619;" d="M457.907 317.466c0 1.351 0.077 2.24 0.199 2.861v4.313c0 56.55-45.843 102.4-102.4 102.4h-9.19c-0.409-0.025-0.781-0.051-1.299-0.051-18.304 0-32.666-9.536-43.341-18.976-4.666 1.223-9.421 2.227-14.214 3.085-4.659 2.010-9.786 3.136-15.181 3.136h-38.4c-5.395 0-10.528-1.127-15.181-3.136-3.264-0.589-6.502-1.261-9.709-2.010-10.547 9.075-24.499 17.901-42.106 17.901-0.518 0-0.896 0.026-1.299 0.051h-14.88c-56.557 0-102.4-45.849-102.4-102.4v-12.147c1.581-16.55 10.791-29.561 19.642-39.373-1.485-5.414-2.733-10.938-3.744-16.538-1.99-4.64-3.097-9.747-3.097-15.11v-18.24c0-0.339-0.026-0.666-0.026-0.986 0-0.339 0.026-0.666 0.026-0.986v-18.189c0-5.363 1.101-10.451 3.079-15.085 0.422-2.349 0.883-4.697 1.395-7.027-8.064-9.466-15.84-21.587-17.273-36.653v-24.461c0-56.563 45.843-102.4 102.4-102.4h14.791c0.429 0.026 0.839 0.051 1.395 0.051 17.613 0 31.565 8.825 42.106 17.888 3.264-0.762 6.547-1.44 9.875-2.035 4.614-1.965 9.683-3.053 15.014-3.053h17.222c0.666-0.013 1.312-0.051 1.977-0.051s1.312 0.038 1.977 0.051h17.223c5.331 0 10.4 1.088 15.014 3.053 4.858 0.877 9.658 1.888 14.375 3.111 10.682-9.44 25.037-18.963 43.347-18.963 0.557 0 0.96-0.026 1.395-0.051h9.094c56.557 0 102.4 45.837 102.4 102.4v16.627c-0.128 0.627-0.199 1.51-0.199 2.861 0 17.165-8.384 30.835-17.203 41.274 0.538 2.451 1.017 4.902 1.466 7.373 1.984 4.64 3.079 9.728 3.079 15.085v18.183c0 0.327 0.026 0.653 0.026 0.986 0 0.327-0.026 0.653-0.026 0.986v18.24c0 5.363-1.107 10.477-3.098 15.111-1.031 5.715-2.304 11.334-3.834 16.864 9.632 10.752 19.584 25.331 19.584 44.032zM345.216 414.189c0.576 0 1.031 0.026 1.613 0.051h8.877c49.408 0 89.6-40.199 89.6-89.6v-3.373c-0.135-1.127-0.199-2.362-0.199-3.801 0-11.475-5.133-21.312-11.373-29.498-19.648 53.939-62.803 96.538-117.063 115.514 8.007 5.92 17.51 10.707 28.544 10.707zM255.257 55.885h-3.949c-8.154 0.089-16.173 0.749-24.013 1.99-3.603 2.272-6.010 6.253-6.010 10.81v25.6c0 7.053 5.741 12.8 12.8 12.8h38.4c7.059 0 12.8-5.747 12.8-12.8v-25.6c0-4.563-2.413-8.538-6.010-10.81-7.846-1.235-15.865-1.901-24.019-1.99zM253.28 388.64c8.89 0 17.613-0.723 26.125-2.073 3.526-2.272 5.875-6.227 5.875-10.726v-25.6c0-7.065-5.741-12.8-12.8-12.8h-38.4c-7.059 0-12.8 5.734-12.8 12.8v25.6c0 4.499 2.349 8.448 5.875 10.726 8.512 1.344 17.242 2.073 26.125 2.073zM417.632 196.211c-2.272-3.565-6.24-5.952-10.777-5.952h-25.6c-7.059 0-12.8 5.735-12.8 12.8v38.4c0 7.053 5.741 12.8 12.8 12.8h25.6c4.525 0 8.486-2.375 10.765-5.939 1.299-8.185 1.99-16.563 2.035-25.101v-1.978c-0.051-8.505-0.736-16.864-2.022-25.031zM291.821 127.424c-5.69 3.328-12.275 5.261-19.334 5.261h-38.4c-7.066 0-13.651-1.939-19.334-5.261-25.511 10.413-45.888 30.803-56.288 56.313 3.315 5.69 5.248 12.275 5.248 19.328v38.4c0 7.040-1.933 13.625-5.235 19.302 10.406 25.523 30.803 45.901 56.327 56.301 5.677-3.303 12.25-5.222 19.29-5.222h38.4c7.040 0 13.613 1.926 19.289 5.222 25.523-10.4 45.92-30.778 56.327-56.301-3.309-5.677-5.235-12.262-5.235-19.303v-38.4c0-7.053 1.933-13.639 5.248-19.328-10.413-25.51-30.791-45.901-56.301-56.313zM88.934 196.211c-1.287 8.16-1.978 16.525-2.022 25.037v1.978c0.051 8.537 0.736 16.915 2.035 25.101 2.272 3.565 6.24 5.939 10.765 5.939h25.6c7.059 0 12.8-5.747 12.8-12.8v-38.4c0-7.065-5.741-12.8-12.8-12.8h-25.6c-4.544 0-8.505 2.387-10.778 5.945zM406.854 279.865h-25.6c-4.461 0-8.729-0.8-12.717-2.202-12.589 26.087-33.753 47.251-59.865 59.827 1.408 3.987 2.214 8.275 2.214 12.749v25.6c0 0.864-0.077 1.715-0.135 2.56 45.587-16.839 81.843-53.088 98.682-98.675-0.851 0.064-1.709 0.141-2.579 0.141zM197.901 337.472c-26.125-12.563-47.322-33.715-59.911-59.801-3.975 1.389-8.231 2.189-12.678 2.189h-25.6c-0.871 0-1.722-0.077-2.573-0.135 16.838 45.587 53.094 81.837 98.681 98.675-0.058-0.851-0.135-1.702-0.135-2.56v-25.6c-0.006-4.493 0.8-8.768 2.214-12.768zM99.706 164.666h25.6c4.454 0 8.717 0.8 12.697 2.189 12.576-26.125 33.767-47.264 59.872-59.865-1.401-3.974-2.202-8.237-2.202-12.697v-25.6c0-0.889 0.077-1.747 0.135-2.611-45.606 16.839-81.875 53.113-98.707 98.714 0.871-0.058 1.728-0.128 2.605-0.128zM308.704 106.938c26.144 12.576 47.334 33.747 59.917 59.885 3.962-1.376 8.199-2.163 12.634-2.163h25.6c0.877 0 1.735 0.077 2.599 0.128-16.832-45.6-53.101-81.875-98.707-98.714 0.058 0.864 0.135 1.728 0.135 2.611v25.6c0 4.442-0.787 8.678-2.176 12.653zM61.306 313.139v11.501c0 49.402 40.192 89.6 89.6 89.6h14.566c0.487-0.025 0.979-0.051 1.613-0.051 10.214 0 19.097-4.103 26.72-9.389-56.198-18.298-101.024-61.786-121.088-117.178-5.568 7.238-10.336 15.75-11.411 25.517zM167.085 30.285c-0.64 0-1.145-0.026-1.721-0.051h-14.464c-49.408 0-89.6 40.185-89.6 89.6v23.801c0.889 8.051 4.301 15.251 8.589 21.575 18.432-59.347 64.903-106.323 123.897-125.536-7.603-5.286-16.48-9.389-26.701-9.389zM445.107 139.328c0-1.44 0.064-2.675 0.199-3.815v-15.673c0-49.414-40.192-89.6-89.6-89.6h-8.768c-0.519 0.026-1.043 0.051-1.721 0.051-11.053 0-20.557 4.774-28.557 10.714 57.017 19.936 101.773 65.978 119.879 123.827 4.896-7.347 8.57-15.846 8.57-25.504z" />
<glyph unicode="&#xe61a;" d="M201.581 122.074v-21.389c0-7.072 5.734-12.8 12.8-12.8s12.8 5.728 12.8 12.8v21.389c14.899 5.274 25.6 19.462 25.6 36.16 0 21.203-17.203 38.4-38.406 38.4-21.203 0-38.394-17.203-38.394-38.4 0-16.711 10.701-30.887 25.6-36.16zM214.375 171.040c7.065 0 12.806-5.735 12.806-12.8 0-7.053-5.741-12.8-12.806-12.8-7.059 0-12.793 5.747-12.793 12.8 0 7.059 5.741 12.8 12.793 12.8zM99.181 286.24h-12.8c-21.203 0-38.4-17.19-38.4-38.4v-192c0-21.209 17.197-38.4 38.4-38.4h256c21.203 0 38.4 17.19 38.4 38.4v192c0 20.224-15.648 36.762-35.488 38.253l-246.112 0.147zM342.381 260.64c7.059 0 12.8-5.734 12.8-12.8v-192c0-7.065-5.741-12.8-12.8-12.8h-256c-7.059 0-12.8 5.735-12.8 12.8v192c0 7.065 5.741 12.8 12.8 12.8h256zM355.155 427.040c-56.557 0-102.4-45.837-102.4-102.4v-38.4h0.025v-0.147l50.976 0.038v10.464h0.173v28.025c0 28.25 22.983 51.226 51.226 51.226s51.226-22.976 51.226-51.226v-32.025h-0.026v-6.349h-0.199v-0.038h0.199v-12.813l51.2 12.851v38.4c0 56.55-45.843 102.394-102.4 102.394zM355.155 388.64c-35.36 0-64.025-28.665-64.025-64.025v-38.375h-12.774v38.4c0 42.349 34.451 76.8 76.8 76.8s76.8-34.451 76.8-76.8v-19.251l-12.774-2.803v22.023c0 35.366-28.659 64.032-64.025 64.032z" />
<glyph unicode="&#xe61b;" d="M208.333 59.36c-12.589 0-24.41 4.902-33.312 13.798l-113.216 113.229c-8.903 8.889-13.799 20.711-13.799 33.299s4.903 24.41 13.799 33.312l32.346 32.352c8.903 8.902 20.73 13.798 33.312 13.798s24.409-4.903 33.312-13.798l47.559-47.565 136.512 136.512c8.896 8.902 20.723 13.798 33.305 13.798s24.409-4.903 33.312-13.798l32.352-32.352c18.361-18.362 18.361-48.25 0-66.611l-202.169-202.176c-8.903-8.896-20.73-13.798-33.312-13.798zM127.463 273.549c-5.741 0-11.149-2.24-15.213-6.31l-32.346-32.339c-4.064-4.064-6.297-9.465-6.297-15.213 0-5.735 2.24-11.136 6.297-15.2l113.216-113.223c8.121-8.115 22.291-8.128 30.425 0.013l202.17 202.163c8.384 8.391 8.384 22.022 0 30.413l-32.352 32.352c-8.128 8.115-22.291 8.135-30.419 0l-145.561-145.568c-4.999-4.998-13.101-4.998-18.099 0l-56.608 56.614c-4.064 4.064-9.472 6.298-15.213 6.298z" />
<glyph unicode="&#xe61c;" d="M446.298 361.587l-54.304 54.311c-14.995 14.989-39.315 14.989-54.304 0l-250.099-250.093c-7.776-7.789-12.787-17.664-14.534-28.589l-24.666-103.802c-1.024-4.327 0.263-8.877 3.405-12.013 3.142-3.149 7.687-4.435 12.013-3.411l103.814 24.685c10.938 1.735 20.813 6.752 28.595 14.528l250.093 250.092c14.983 14.976 14.983 39.303-0.013 54.291zM163.59 67.949l-0.947-0.147-0.935-0.211-83.603-19.885 20.090 84.538 0.147 0.96c0.57 3.552 1.831 6.765 3.623 9.69l71.309-71.315c-2.912-1.792-6.125-3.065-9.683-3.629zM191.929 89.127l-72.403 72.409 190.976 190.963 18.099-18.099-190.938-190.938 9.049-9.050 190.937 190.938 18.099-18.099-190.938-190.938 9.049-9.050 190.944 190.938 18.099-18.099-190.976-190.976zM428.192 325.389l-27.187-27.187-72.403 72.397 27.187 27.187c4.986 4.998 13.113 4.998 18.099 0l54.304-54.298c4.998-4.986 4.998-13.113 0-18.099z" />
<glyph unicode="&#xe61d;" d="M60.819 305.587c7.066 0 12.8 5.735 12.8 12.8v33.101l35.751-35.75c2.502-2.502 5.773-3.75 9.049-3.75s6.547 1.248 9.049 3.75c4.998 4.998 4.998 13.113 0 18.099l-35.751 35.75h33.101c7.066 0 12.8 5.735 12.8 12.8 0 7.072-5.734 12.8-12.8 12.8h-64c-0.839 0-1.677-0.090-2.509-0.25-0.384-0.077-0.736-0.224-1.107-0.327-0.429-0.128-0.864-0.224-1.28-0.403-0.435-0.173-0.839-0.422-1.248-0.665-0.32-0.173-0.653-0.314-0.947-0.512-1.408-0.935-2.611-2.137-3.552-3.552-0.211-0.314-0.358-0.653-0.531-0.973-0.224-0.409-0.467-0.8-0.647-1.222s-0.275-0.864-0.403-1.287c-0.109-0.377-0.249-0.723-0.327-1.101-0.16-0.825-0.249-1.664-0.249-2.515v-64c0-7.053 5.728-12.793 12.8-12.793zM124.819 75.187h-33.101l35.751 35.75c4.999 4.998 4.999 13.101 0 18.099s-13.101 4.998-18.099 0l-35.751-35.75v33.101c0 7.072-5.734 12.8-12.8 12.8s-12.8-5.728-12.8-12.8v-64c0-0.839 0.090-1.677 0.249-2.502 0.077-0.39 0.218-0.736 0.327-1.101 0.135-0.435 0.23-0.877 0.403-1.299s0.416-0.813 0.647-1.223c0.173-0.327 0.32-0.666 0.531-0.973 0.934-1.401 2.144-2.611 3.552-3.552 0.301-0.199 0.633-0.339 0.947-0.512 0.41-0.224 0.813-0.474 1.248-0.666 0.416-0.16 0.851-0.262 1.28-0.39 0.371-0.115 0.723-0.262 1.107-0.339 0.825-0.16 1.67-0.25 2.509-0.25h64c7.066 0 12.8 5.735 12.8 12.8 0 7.085-5.734 12.807-12.8 12.807zM457.344 384.903c-0.077 0.377-0.217 0.723-0.327 1.101-0.135 0.422-0.231 0.864-0.403 1.286s-0.416 0.813-0.647 1.222c-0.173 0.327-0.32 0.666-0.531 0.973-0.935 1.414-2.144 2.611-3.552 3.552-0.301 0.198-0.634 0.339-0.947 0.512-0.409 0.237-0.813 0.486-1.248 0.666-0.416 0.173-0.851 0.275-1.28 0.403-0.371 0.103-0.723 0.25-1.107 0.327-0.825 0.16-1.671 0.25-2.509 0.25h-64c-7.065 0-12.8-5.728-12.8-12.8 0-7.065 5.735-12.8 12.8-12.8h33.101l-35.75-35.75c-4.998-4.986-4.998-13.101 0-18.099 2.502-2.502 5.773-3.75 9.050-3.75s6.547 1.248 9.050 3.75l35.75 35.75v-33.101c0-7.065 5.735-12.8 12.8-12.8s12.8 5.734 12.8 12.8v64c0 0.845-0.089 1.683-0.25 2.509zM444.793 139.187c-7.065 0-12.8-5.728-12.8-12.8v-33.101l-35.75 35.75c-4.998 4.998-13.101 4.998-18.099 0s-4.998-13.101 0-18.099l35.75-35.75h-33.101c-7.065 0-12.8-5.728-12.8-12.8 0-7.065 5.735-12.8 12.8-12.8h64c0.839 0 1.683 0.089 2.509 0.25 0.384 0.077 0.736 0.224 1.107 0.339 0.429 0.128 0.864 0.224 1.28 0.39 0.435 0.185 0.839 0.435 1.248 0.666 0.32 0.173 0.653 0.313 0.947 0.512 1.408 0.935 2.611 2.151 3.552 3.552 0.211 0.313 0.358 0.653 0.531 0.973 0.224 0.409 0.467 0.8 0.647 1.223s0.275 0.864 0.403 1.299c0.109 0.365 0.25 0.711 0.327 1.101 0.16 0.825 0.25 1.664 0.25 2.502v64c0 7.072-5.728 12.793-12.8 12.793zM380.793 164.787v115.2c0 21.209-17.197 38.4-38.4 38.4h-179.2c-21.203 0-38.4-17.19-38.4-38.4v-115.2c0-21.203 17.197-38.4 38.4-38.4h179.2c21.209 0 38.4 17.203 38.4 38.4zM355.193 164.787c0-7.053-5.741-12.8-12.8-12.8h-179.2c-7.059 0-12.8 5.747-12.8 12.8v115.2c0 7.065 5.741 12.8 12.8 12.8h179.2c7.059 0 12.8-5.734 12.8-12.8v-115.2z" />
<glyph unicode="&#xe61e;" d="M252.793 427.040c-113.107 0-204.8-91.687-204.8-204.8s91.693-204.8 204.8-204.8 204.8 91.686 204.8 204.8-91.693 204.8-204.8 204.8zM252.793 43.040c-98.81 0-179.2 80.391-179.2 179.2s80.391 179.2 179.2 179.2 179.2-80.391 179.2-179.2-80.391-179.2-179.2-179.2zM380.768 235.040c-7.065 0-12.8-5.734-12.8-12.8 0-63.526-51.68-115.2-115.2-115.2s-115.2 51.673-115.2 115.2c0 7.065-5.734 12.8-12.8 12.8s-12.8-5.734-12.8-12.8c0-77.639 63.161-140.8 140.8-140.8s140.8 63.161 140.8 140.8c0 7.059-5.728 12.8-12.8 12.8zM220.781 279.565c0-21.208-11.462-38.4-25.6-38.4s-25.6 17.192-25.6 38.4c0 21.208 11.462 38.4 25.6 38.4 14.138 0 25.6-17.192 25.6-38.4zM336.007 279.565c0-21.208-11.462-38.4-25.6-38.4s-25.6 17.192-25.6 38.4c0 21.208 11.462 38.4 25.6 38.4 14.139 0 25.6-17.192 25.6-38.4z" />
<glyph unicode="&#xe61f;" d="M457.555 414.112c-0.026 7.040-5.721 12.736-12.755 12.762h-1.939c-54.969 0-114.137-8.301-174.342-68.499l-38.253-38.253c-61.44-2.477-135.117-45.51-138.31-47.398-3.411-2.010-5.703-5.485-6.201-9.415-0.493-3.923 0.851-7.865 3.648-10.662l84.57-84.57c-10.035 5.773-21.434 8.915-33.325 8.915-17.907 0-34.733-6.976-47.353-19.603-1.741-1.735-3.469-3.687-4.992-5.639-31.225-37.063-38.983-106.637-40.218-120.198-0.346-3.789 1.011-7.526 3.699-10.214 2.413-2.413 5.67-3.75 9.050-3.75 0.391 0 0.775 0.026 1.171 0.051 6.823 0.627 67.552 6.81 107.603 31.949 6.918 3.315 13.12 7.687 18.439 12.998 21.863 21.875 25.357 55.187 10.624 80.8l84.659-84.672c2.406-2.4 5.671-3.738 9.050-3.738 0.301 0 0.608 0 0.915 0.026 3.699 0.262 7.104 2.125 9.331 5.101 1.926 2.56 46.035 62.502 48.109 139.411l38.323 38.323c60.499 60.499 68.678 120.473 68.499 176.275zM169.946 80.685c-3.379-3.373-7.386-6.151-11.891-8.237-0.518-0.237-1.018-0.512-1.491-0.825-24.653-15.699-60.493-23.213-80.992-26.425 3.539 23.591 12.454 66.49 32.582 90.375 0.992 1.261 2.035 2.502 3.232 3.687 7.821 7.827 18.221 12.128 29.28 12.128s21.465-4.301 29.286-12.128c16.135-16.147 16.135-42.419-0.006-58.573zM200.083 289.939l-55.879-55.872-24.576 24.563c17.728 9.133 49.088 23.821 80.454 31.309zM290.272 87.974l-25.536 25.536 57.433 57.44c-6.637-36.589-22.24-66.873-31.897-82.976zM329.094 214.074c-0.007-0.013-0.013-0.013-0.019-0.013l-82.432-82.445-33.12 33.127 67.642 67.635c4.998 4.999 4.998 13.101 0 18.099s-13.101 4.999-18.099 0l-67.648-67.642-33.12 33.113 82.445 82.451c0 0 0 0 0.006 0.013l41.869 41.863c49.664 49.651 98.925 59.661 145.222 60.864-0.992-43.84-9.433-93.747-60.889-145.203l-41.856-41.863zM386.189 355.514c-4.992 4.986-11.546 7.488-18.099 7.488-6.547 0-13.101-2.502-18.099-7.488-10.003-10.003-10.003-26.215 0-36.211 4.998-4.986 11.552-7.488 18.099-7.488 6.553 0 13.107 2.502 18.099 7.488 9.99 9.997 9.997 26.208 0 36.211zM377.133 328.365c-2.413-2.425-5.625-3.75-9.043-3.75s-6.63 1.325-9.050 3.75c-2.419 2.413-3.75 5.625-3.75 9.049 0 3.411 1.331 6.624 3.75 9.037 2.419 2.425 5.632 3.75 9.050 3.75s6.63-1.325 9.050-3.738c2.419-2.425 3.75-5.638 3.75-9.050-0.007-3.424-1.331-6.637-3.757-9.049z" />
<glyph unicode="&#xe620;" d="M451.897 412.045c-4.051 2.707-9.28 2.88-13.504 0.454l-383.974-221.197c-4.455-2.56-6.944-7.539-6.317-12.64 0.627-5.107 4.237-9.337 9.184-10.752l112.135-32.154 52.889-98.739c2.112-3.955 6.144-6.509 10.618-6.745 0.218-0.013 0.441-0.013 0.666-0.013 4.231 0 8.205 2.093 10.599 5.625l38.432 56.729 0.339-0.205 3.725 6.202 2.208 3.251 110.4-31.36c3.584-1.024 7.418-0.435 10.534 1.613 3.104 2.041 5.178 5.337 5.658 9.024l42.003 318.599c0.615 4.825-1.543 9.6-5.594 12.307zM234.861 67.776l-42.246 78.873 125.946 104.096c5.453 4.506 6.214 12.57 1.715 18.016-4.505 5.459-12.582 6.215-18.022 1.715l-131.303-108.531-77.587 22.247 328.743 189.382-156.947-261.075-30.298-44.723zM392.026 99.175l-89.696 25.485 119.187 198.266-29.491-223.75z" />
<glyph unicode="&#xe621;" d="M259.207 254.227h-153.575c-3.539 0-6.4-2.867-6.4-6.4 0-3.539 2.861-6.4 6.4-6.4h153.575c3.539 0 6.4 2.861 6.4 6.4 0 3.526-2.861 6.4-6.4 6.4zM259.207 151.827h-153.575c-3.539 0-6.4-2.867-6.4-6.4 0-3.539 2.861-6.4 6.4-6.4h153.575c3.539 0 6.4 2.861 6.4 6.4 0 3.526-2.861 6.4-6.4 6.4zM259.207 126.221h-153.575c-3.539 0-6.4-2.867-6.4-6.4s2.861-6.4 6.4-6.4h153.575c3.539 0 6.4 2.867 6.4 6.4s-2.861 6.4-6.4 6.4zM105.632 215.827h115.174c3.539 0 6.4 2.861 6.4 6.4 0 3.533-2.861 6.4-6.4 6.4h-115.174c-3.539 0-6.4-2.867-6.4-6.4 0-3.539 2.861-6.4 6.4-6.4zM105.632 190.221h70.4c3.539 0 6.4 2.867 6.4 6.4s-2.861 6.4-6.4 6.4h-70.4c-3.539 0-6.4-2.867-6.4-6.4s2.861-6.4 6.4-6.4zM291.207 113.421h115.2v140.806h-115.2v-140.806zM304.007 241.427h89.6v-115.206h-89.6v115.207zM419.207 382.221h-332.8c-21.203 0-38.4-17.197-38.4-38.4v-243.2c0-21.209 17.197-38.4 38.4-38.4h332.8c21.203 0 38.4 17.19 38.4 38.4v243.2c0 21.209-17.197 38.4-38.4 38.4zM86.406 356.621h332.8c7.059 0 12.8-5.741 12.8-12.8v-38.4h-358.4v38.4c0 7.059 5.741 12.8 12.8 12.8zM419.207 87.827h-332.8c-7.059 0-12.8 5.735-12.8 12.8v179.2h358.4v-179.2c0-7.065-5.741-12.8-12.8-12.8zM118.432 334.221c0-5.302-4.298-9.6-9.6-9.6s-9.6 4.298-9.6 9.6c0 5.302 4.298 9.6 9.6 9.6 5.302 0 9.6-4.298 9.6-9.6zM150.432 334.221c0-5.302-4.298-9.6-9.6-9.6s-9.6 4.298-9.6 9.6c0 5.302 4.298 9.6 9.6 9.6 5.302 0 9.6-4.298 9.6-9.6zM182.432 334.221c0-5.302-4.298-9.6-9.6-9.6s-9.6 4.298-9.6 9.6c0 5.302 4.298 9.6 9.6 9.6 5.302 0 9.6-4.298 9.6-9.6z" />
<glyph unicode="&#xe622;" d="M400.608 344.409c-4.998 4.999-13.101 4.999-18.099 0s-4.998-13.101 0-18.099c57.395-57.402 57.395-150.791 0-208.173-4.998-4.998-4.998-13.107 0-18.099 2.502-2.502 5.773-3.75 9.050-3.75s6.547 1.248 9.050 3.75c67.373 67.367 67.373 176.998 0 244.371zM364.403 308.211c-4.998 4.999-13.101 4.999-18.099 0-4.998-4.999-4.998-13.101 0-18.099 37.433-37.44 37.433-98.343 0.007-135.776-4.998-4.998-4.998-13.101 0-18.099 2.502-2.502 5.773-3.75 9.050-3.75s6.547 1.248 9.050 3.75c47.411 47.411 47.405 124.563-0.007 171.974zM328.192 272.006c-4.998 4.992-13.101 4.992-18.099-0.006s-4.998-13.101 0-18.099c17.466-17.465 17.466-45.888 0.007-63.36-4.998-4.998-4.998-13.101 0-18.099 2.502-2.502 5.773-3.75 9.050-3.75s6.547 1.248 9.050 3.75c27.45 27.443 27.443 72.115-0.007 99.565zM283.373 426.035c-1.594 0.666-3.277 0.999-4.941 0.999-3.289 0-6.534-1.267-8.973-3.661l-113.702-111.539h-75.712c-21.203 0-38.4-17.197-38.4-38.4v-102.4c0-21.209 17.197-38.4 38.4-38.4h78.022l111.296-111.45c2.451-2.451 5.728-3.75 9.056-3.75 1.651 0 3.315 0.313 4.896 0.966 4.787 1.984 7.904 6.649 7.904 11.834v384c0 5.159-3.091 9.805-7.846 11.802zM131.245 286.24v-128h-25.6v128h25.6zM67.245 171.040v102.4c0 7.053 5.741 12.8 12.8 12.8h12.8v-128h-12.8c-7.059 0-12.8 5.735-12.8 12.8zM265.619 61.165l-89.44 89.561c-4.8 4.813-11.322 7.514-18.112 7.514h-14.023v128h11.712c6.707 0 13.145 2.624 17.927 7.328l91.936 90.176v-322.579z" />
<glyph unicode="&#xe623;" d="M431.968 147.591v191.955c0 21.203-17.197 38.4-38.4 38.4h-281.6c-21.203 0-38.4-17.197-38.4-38.4v-191.955h-25.575v-38.4c0-21.203 17.197-38.4 38.4-38.4h332.8c21.203 0 38.4 17.203 38.4 38.4v38.4h-25.625zM99.168 339.495v0.051c0 7.059 5.741 12.8 12.8 12.8h281.6c7.059 0 12.8-5.741 12.8-12.8v-191.955h-12.8v166.355c0 7.066-5.735 12.8-12.8 12.8h-256c-7.066 0-12.8-5.735-12.8-12.8v-166.355h-12.8v191.904zM380.768 313.946v-166.355h-256v166.355h256zM431.993 109.19c0-7.059-5.741-12.8-12.8-12.8h-332.8c-7.059 0-12.8 5.741-12.8 12.8v12.8h358.4v-12.8zM259.193 339.43c0-3.535-2.865-6.4-6.4-6.4s-6.4 2.865-6.4 6.4c0 3.535 2.865 6.4 6.4 6.4 3.535 0 6.4-2.865 6.4-6.4z" />
<glyph unicode="&#xe624;" d="M430.183 300.301l-126.714 126.707-54.131-54.131c-3.181-3.181-6.841-5.536-10.688-7.366l-7.45 7.45c-14.995 14.995-39.309 14.995-54.304 0l-55.859-55.859-10.323-9.69-7.84 7.84c-6.246 6.253-14.439 9.376-22.624 9.376s-16.384-3.123-22.624-9.376c-12.499-12.493-12.499-32.755 0-45.255l243.162-243.161c6.247-6.247 14.438-9.37 22.624-9.37s16.384 3.123 22.624 9.37c12.499 12.493 12.499 32.755 0 45.255l-82.029 82.035 9.12 9.113 43.488 41.709 14.151 14.144c3.181 3.187 6.835 5.542 10.682 7.373l7.45-7.45c15.002-14.995 39.315-14.995 54.304 0l54.131 54.131-27.149 27.155zM329.811 49.466c0-1.209-0.327-2.976-1.882-4.538-1.543-1.536-3.309-1.863-4.519-1.863-1.203 0-2.976 0.327-4.525 1.863l-243.161 243.174c-1.549 1.549-1.875 3.309-1.875 4.525 0 1.203 0.326 2.969 1.882 4.531 1.543 1.543 3.309 1.869 4.519 1.869 1.203 0 2.976-0.327 4.525-1.875l243.161-243.168c1.549-1.549 1.875-3.322 1.875-4.519zM312.666 237.197l-14.157-14.151-43.488-41.709-9.049-9.050-117.664 117.657 9.049 9.056 57.645 55.853c4.915 4.921 12.851 4.973 17.863 0.199l109.735-109.728c-3.526-2.329-6.848-5.043-9.933-8.128zM385.274 237.293l-0.173-0.173c-4.915-4.915-12.851-4.966-17.863-0.192l-109.734 109.728c3.507 2.329 6.835 5.037 9.933 8.128l-9.933-8.128 10.106 8.295 35.859 35.859 117.664-117.664-35.859-35.853z" />
<glyph unicode="&#xe625;" d="M393.594 105.209v97.83c0 28.231-22.969 51.2-51.2 51.2h-76.8v85.075c18.496 5.51 32 22.63 32 42.918 0 24.749-20.070 44.8-44.8 44.8-24.743 0-44.8-20.058-44.8-44.8 0-20.288 13.498-37.414 32-42.925v-85.075h-76.8c-28.231 0-51.2-22.97-51.2-51.2v-97.83c-18.49-5.517-31.974-22.63-31.974-42.918 0-24.736 20.058-44.8 44.8-44.8 24.73 0 44.8 20.064 44.8 44.8 0 20.301-13.517 37.427-32.025 42.925v97.83c0 14.112 11.482 25.6 25.6 25.6h76.8v-123.431c-18.502-5.51-32-22.63-32-42.925 0-24.743 20.058-44.8 44.8-44.8 24.73 0 44.8 20.058 44.8 44.8 0 20.295-13.504 37.414-32 42.918v123.43h76.8c14.118 0 25.6-11.481 25.6-25.6v-97.824c-18.502-5.51-32-22.63-32-42.925 0-24.736 20.058-44.8 44.8-44.8 24.729 0 44.8 20.064 44.8 44.8 0 20.294-13.504 37.414-32 42.925zM233.594 382.233c0 10.586 8.614 19.2 19.2 19.2s19.2-8.614 19.2-19.2-8.615-19.2-19.2-19.2-19.2 8.615-19.2 19.2zM144.019 62.285c0-10.586-8.614-19.2-19.2-19.2s-19.2 8.615-19.2 19.2 8.614 19.2 19.2 19.2 19.2-8.608 19.2-19.2zM271.993 62.279c0-10.586-8.615-19.2-19.2-19.2s-19.2 8.615-19.2 19.2c0 10.592 8.614 19.207 19.2 19.207s19.2-8.608 19.2-19.207zM380.793 43.085c-10.586 0-19.2 8.615-19.2 19.2s8.615 19.2 19.2 19.2 19.2-8.615 19.2-19.2-8.615-19.2-19.2-19.2z" />
<glyph unicode="&#xe626;" d="M383.495 182.534c11.418 11.411 64.135 88.448 66.375 91.725 9.376 13.715 10.189 31.731 2.118 47.014-7.897 14.976-22.534 23.91-39.142 23.91h-268.774v38.4c0 0.889-0.089 1.747-0.262 2.586-1.319 12.889-12.109 23.014-25.338 23.014h-44.8c-14.118 0-25.6-11.481-25.6-25.6v-12.8c0-14.119 11.482-25.6 25.6-25.6h44.8v-179.149c0-28.231 22.97-51.2 51.2-51.2h236.8c7.065 0 12.8 5.735 12.8 12.8s-5.735 12.8-12.8 12.8h-236.8c-14.099 0-25.561 11.45-25.594 25.549h198.515c22.611 0.007 31.213 6.861 40.902 16.55zM412.845 319.584c10.003 0 14.873-7.175 16.499-10.259 2.841-5.382 4.166-13.625-0.615-20.621-25.715-37.613-57.241-81.984-63.334-88.070-6.586-6.586-9.050-9.050-22.803-9.050h-198.528v128h268.781zM73.671 370.784v12.8h44.8v-12.8h-44.8zM195.238 114.835c-21.171 0-38.394-17.223-38.394-38.4s17.222-38.4 38.394-38.4c21.178 0 38.406 17.223 38.406 38.4s-17.235 38.4-38.406 38.4zM195.238 63.635c-7.059 0-12.793 5.735-12.793 12.8 0 7.053 5.734 12.8 12.793 12.8 7.065 0 12.806-5.747 12.806-12.8 0-7.059-5.747-12.8-12.806-12.8zM361.613 114.835c-21.171 0-38.394-17.223-38.394-38.4s17.223-38.4 38.394-38.4c21.178 0 38.406 17.223 38.406 38.4s-17.229 38.4-38.406 38.4zM361.613 63.635c-7.059 0-12.793 5.735-12.793 12.8 0 7.053 5.735 12.8 12.793 12.8 7.065 0 12.806-5.747 12.806-12.8 0-7.059-5.747-12.8-12.807-12.8z" />
<glyph unicode="&#xe627;" d="M240.32 273.107c-2.496 2.496-5.767 3.744-9.049 3.744-3.277 0-6.547-1.248-9.049-3.744l-108.615-108.614c-4.998-5.005-4.998-13.107 0-18.093l63.353-63.36c2.502-2.502 5.773-3.75 9.049-3.75s6.547 1.248 9.049 3.75l108.615 108.615c4.998 4.992 4.998 13.101 0 18.099l-63.353 63.353zM186.010 92.089l-63.353 63.347 108.601 108.615c0 0 0.006 0 0.013 0l63.354-63.353-108.615-108.608zM451.872 421.337c-7.488 7.488-19.667 7.488-27.155 0l-75.776-75.776-16.921 16.921c-0.352 0.307-0.717 0.653-1.146 1.075-7.821 7.821-18.080 9.088-22.912 9.101h-45.075c-9.6-0.006-18.125-4.601-22.573-9.049l-180.979-180.986c-15.002-14.989-15.002-39.309 0-54.298l99.558-99.565c7.494-7.501 17.325-11.251 27.155-11.251 9.824 0 19.648 3.75 27.149 11.251l180.986 180.986c8.493 8.493 9.063 17.977 9.069 24.269v43.379c-0.007 12.275-4.461 18.323-9.056 22.912l-18.099 18.099 75.776 75.782c7.488 7.488 7.488 19.667 0 27.149zM377.658 277.401v-43.353c-0.007-4.441-0.486-5.107-1.568-6.195l-180.992-180.992c-3.264-3.264-7.072-3.75-9.049-3.75-1.99 0-5.792 0.486-9.056 3.75l-99.552 99.571c-3.264 3.257-3.751 7.065-3.751 9.043 0 1.984 0.487 5.786 3.751 9.050l180.877 180.877c0.647 0.563 2.726 1.658 4.582 1.658h45.024c1.069 0 3.654-0.397 4.864-1.6 0.582-0.582 1.113-1.088 1.613-1.543l16.448-16.448-18.137-18.137c-0.038-0.038-0.058-0.083-0.096-0.122-1.466 0.199-2.938 0.423-4.409 0.423-8.185 0-16.377-3.13-22.624-9.376-12.493-12.499-12.499-32.755 0-45.255 6.253-6.253 14.438-9.369 22.63-9.369 8.185 0 16.384 3.123 22.624 9.369 12.493 12.499 12.493 32.755 0 45.255-1.555 1.555-3.232 2.918-4.998 4.083l14.067 14.067 36.205-36.205c1.344-1.344 1.549-1.549 1.549-4.8zM312.704 282.169c4.013-4.013 9.344-5.721 14.599-5.414-0.205-4.621-2.003-9.184-5.523-12.704-3.623-3.623-8.448-5.619-13.575-5.619-5.133 0-9.959 1.997-13.581 5.619s-5.625 8.448-5.625 13.575c0 5.133 2.003 9.952 5.625 13.581 3.379 3.379 7.827 5.274 12.563 5.523-0.262-5.242 1.523-10.566 5.517-14.56zM442.822 403.238l-75.776-75.782-9.050 9.056 75.776 75.776c2.496 2.496 6.547 2.496 9.050 0 2.496-2.496 2.496-6.553 0-9.049z" />
<glyph unicode="&#xe628;" d="M415.475 389.485c-24.998 24.992-57.76 37.485-90.515 37.485-32.762 0-65.523-12.493-90.515-37.479-37.101-37.113-46.599-91.315-28.614-137.235l-147.379-147.379c-19.987-19.993-19.987-52.409 0-72.403 10.003-10.003 23.097-15.002 36.198-15.002 13.114 0 26.215 4.998 36.211 15.002l10.611 10.611h29.965c14.137 0 25.6 11.462 25.6 25.6v25.562h25.561c14.137 0 25.6 11.462 25.6 25.6v29.965l30.048 30.035c15.014-5.875 30.912-8.813 46.803-8.813 32.723 0 65.44 12.461 90.425 37.44 49.99 49.984 49.99 131.027 0 181.011zM397.376 226.573c-19.315-19.315-44.998-29.946-72.327-29.946-12.902 0-25.51 2.375-37.472 7.059-3.027 1.184-6.189 1.753-9.325 1.753-6.663 0-13.209-2.599-18.099-7.495l-30.048-30.041c-4.8-4.8-7.501-11.315-7.501-18.099v-29.965h-25.561c-14.137 0-25.6-11.456-25.6-25.6v-25.562h-29.965c-6.791 0-13.299-2.695-18.099-7.501l-10.611-10.605c-4.838-4.839-11.264-7.507-18.112-7.507-6.823 0-13.261 2.663-18.099 7.501-4.826 4.839-7.488 11.264-7.488 18.099s2.662 13.267 7.488 18.106l147.379 147.386c7.187 7.187 9.44 17.965 5.734 27.431-14.861 37.945-5.875 81.043 22.874 109.798 19.334 19.334 45.050 29.99 72.409 29.99 27.347 0 53.063-10.649 72.409-29.99 19.334-19.341 29.99-45.056 29.99-72.409 0.007-27.354-10.643-53.063-29.978-72.403zM332.685 361.997c-4.998 4.992-11.552 7.494-18.099 7.494-6.56 0-13.113-2.502-18.112-7.494l-9.050-9.050c-9.99-10.003-9.99-26.214 0-36.211l54.31-54.297c4.998-4.998 11.552-7.501 18.099-7.501s13.101 2.503 18.099 7.501l9.050 9.050c10.003 10.003 10.003 26.208 0 36.198l-54.298 54.31zM377.939 280.531l-9.050-9.050c-2.413-2.419-5.625-3.75-9.050-3.75s-6.637 1.331-9.050 3.75l-54.31 54.298c-4.986 4.992-4.986 13.12 0 18.106l9.050 9.049c2.425 2.419 5.639 3.751 9.063 3.751 3.411 0 6.624-1.331 9.050-3.751l54.298-54.304c4.986-4.986 4.986-13.113 0-18.099z" />
<glyph unicode="&#xe629;" d="M301.639 380.346c-17.613 12.749-34.265 24.8-34.265 33.779 0 7.065-5.728 12.8-12.8 12.8-7.065 0-12.8-5.735-12.8-12.8v-286.457c-14.951 11.034-35.2 17.849-57.549 17.849-45.965 0-83.2-28.653-83.2-64s37.235-64 83.2-64c45.952 0 83.2 28.653 83.2 64 0 0.87-0.128 1.715-0.173 2.573 0.038 0.409 0.128 0.813 0.128 1.235v162.445c26.624-0.877 90.375-8.25 116.723-57.299 2.272-4.224 6.649-6.752 11.277-6.752 1.037 0 2.087 0.128 3.123 0.39 5.69 1.44 9.677 6.547 9.677 12.409-0.007 106.714-64.115 153.113-106.541 183.827zM184.224 43.117c-31.226 0-57.6 17.587-57.6 38.4s26.375 38.4 57.6 38.4 57.6-17.587 57.6-38.4-26.375-38.4-57.6-38.4zM267.373 273.421v100.608c5.824-4.678 12.327-9.401 19.251-14.419 34.163-24.723 78.976-57.165 92.147-122.931-36.909 30.841-87.411 36.102-111.399 36.743z" />
<glyph unicode="&#xe62a;" d="M421.075 321.472v89.491c0 4.57-2.438 8.8-6.4 11.078-3.962 2.285-8.839 2.285-12.8 0l-152.019-87.763h-161.651c-21.203 0-38.4-17.197-38.4-38.4v-102.4c0-21.203 17.197-38.4 38.4-38.4h29.703l34.272-96c7.29-19.149 23.597-38.4 44.8-38.4h32c21.203 0 32.128 19.251 25.6 38.4l-34.272 96h29.44l152.134-87.84c1.978-1.139 4.185-1.715 6.4-1.715s4.409 0.576 6.4 1.715c3.962 2.285 6.4 6.515 6.4 11.085v89.555c21.178 0.038 38.323 17.209 38.323 38.4v76.8c-0.007 21.184-17.152 38.362-38.329 38.394zM230.393 50.701c0.832-2.547 0.333-4.064 0.307-4.173-0.006-0.007-0.48-0.243-1.721-0.243h-32c-6.989 0-16.089 9.504-20.787 21.683l-31.104 87.111h48.038l37.267-104.377zM228.979 180.678h-140.774c-7.059 0-12.8 5.741-12.8 12.8v102.4c0 7.059 5.741 12.8 12.8 12.8h140.774v-128zM395.475 100.505l-140.896 81.344v125.6l140.896 81.344v-288.288zM433.798 206.279c0-7.040-5.702-12.755-12.723-12.8v102.387c7.027-0.038 12.723-5.754 12.723-12.787v-76.8z" />
<glyph unicode="&#xe62b;" d="M409.235 152.512c-16.448 12.352-39.475 24.8-39.475 57.017v25.6c0 42.585-23.175 79.686-57.536 99.622v34.784c0 31.808-25.786 57.6-57.6 57.6-31.808 0-57.6-25.792-57.6-57.6v-34.707c-34.439-19.91-57.664-57.056-57.664-99.699v-25.6c0-32.346-23.2-44.762-39.661-57.165-2.925-1.849-5.568-4.083-7.885-6.63-0.070-0.070-0.147-0.135-0.218-0.199 0 0 0.025-0.007 0.032-0.007-6.099-6.803-9.837-15.75-9.837-25.6v-51.149c0-7.065 5.734-12.8 12.8-12.8h114.509c2.995-21.831 21.677-38.675 44.346-38.675 22.649 0 41.325 16.845 44.32 38.675h116.8c7.072 0 12.8 5.735 12.8 12.8v51.642c-0.179 13.562-7.392 25.395-18.131 32.089zM222.631 369.536c0 17.645 14.355 32 32 32s32-14.355 32-32v-23.821c-10.189 2.95-20.928 4.614-32.058 4.614-11.091 0-21.786-1.657-31.936-4.583v23.789zM253.44 30.106c-15.552 0-28.525 11.155-31.392 25.875h62.765c-2.873-14.72-15.827-25.875-31.373-25.875zM401.76 81.581h-294.368v38.349c0 3.962 1.754 6.784 3.251 8.454l0.115 0.128c0.793 0.87 1.683 1.619 2.65 2.233l0.877 0.557 0.826 0.621c1.766 1.337 3.623 2.669 5.517 4.026 16.589 11.923 44.346 31.885 44.346 73.587v25.6c0 49.408 40.192 89.6 89.6 89.6s89.6-40.192 89.6-89.6v-25.6c0-41.709 27.763-61.664 44.352-73.587 1.837-1.318 3.623-2.611 5.351-3.897l0.889-0.666 0.935-0.589c3.712-2.31 5.99-6.259 6.074-10.567v-38.649zM275.687 302.291c-3.373 1.075-6.963-0.8-8.026-4.173s0.813-6.963 4.173-8.026c17.939-5.657 32.026-19.737 37.677-37.677 0.864-2.733 3.385-4.474 6.112-4.474 0.64 0 1.286 0.096 1.926 0.301 3.36 1.063 5.235 4.653 4.173 8.026-6.912 21.913-24.122 39.123-46.035 46.022z" />
<glyph unicode="&#xe62c;" d="M254.599 426.95c-113.113 0-204.8-91.693-204.8-204.8s91.686-204.8 204.8-204.8 204.8 91.693 204.8 204.8-91.687 204.8-204.8 204.8zM254.599 42.95c-98.81 0-179.2 80.391-179.2 179.2s80.391 179.2 179.2 179.2 179.2-80.391 179.2-179.2-80.384-179.2-179.2-179.2zM254.611 362.951c3.539 0 6.4 2.867 6.4 6.4s-2.861 6.4-6.4 6.4c-84.698 0-153.6-68.909-153.6-153.6 0-3.533 2.861-6.4 6.4-6.4s6.4 2.867 6.4 6.4c0 77.638 63.161 140.8 140.8 140.8zM401.811 228.55c-3.539 0-6.4-2.867-6.4-6.4 0-77.638-63.161-140.8-140.8-140.8-3.539 0-6.4-2.867-6.4-6.4s2.861-6.4 6.4-6.4c84.685 0 153.6 68.909 153.6 153.6 0 3.533-2.861 6.4-6.4 6.4zM254.611 337.351c3.539 0 6.4 2.867 6.4 6.4s-2.861 6.4-6.4 6.4c-70.585 0-128-57.421-128-128 0-3.533 2.861-6.4 6.4-6.4s6.4 2.867 6.4 6.4c0 63.52 51.673 115.2 115.2 115.2zM254.611 106.95c-3.539 0-6.4-2.867-6.4-6.4s2.861-6.4 6.4-6.4c70.573 0 128 57.421 128 128 0 3.533-2.861 6.4-6.4 6.4s-6.4-2.867-6.4-6.4c0-63.52-51.687-115.2-115.2-115.2zM254.611 311.75c3.539 0 6.4 2.867 6.4 6.4s-2.861 6.4-6.4 6.4c-56.461 0-102.4-45.939-102.4-102.4 0-3.533 2.861-6.4 6.4-6.4s6.4 2.867 6.4 6.4c0 49.408 40.198 89.6 89.6 89.6zM254.611 132.55c-3.539 0-6.4-2.867-6.4-6.4s2.861-6.4 6.4-6.4c56.461 0 102.4 45.939 102.4 102.4 0 3.533-2.861 6.4-6.4 6.4s-6.4-2.867-6.4-6.4c0-49.408-40.199-89.6-89.6-89.6zM254.611 286.15c3.539 0 6.4 2.867 6.4 6.4s-2.861 6.4-6.4 6.4c-42.349 0-76.8-34.458-76.8-76.8 0-3.533 2.861-6.4 6.4-6.4s6.4 2.867 6.4 6.4c0 35.296 28.717 64 64 64zM254.611 158.151c-3.539 0-6.4-2.867-6.4-6.4s2.861-6.4 6.4-6.4c42.349 0 76.8 34.457 76.8 76.8 0 3.533-2.861 6.4-6.4 6.4s-6.4-2.867-6.4-6.4c0-35.296-28.711-64-64-64zM305.798 222.151c0 28.275-22.912 51.2-51.2 51.2-28.275 0-51.2-22.925-51.2-51.2 0-28.281 22.925-51.2 51.2-51.2 28.288 0 51.2 22.918 51.2 51.2zM228.999 222.151c0 14.119 11.488 25.6 25.6 25.6 14.125 0 25.6-11.482 25.6-25.6s-11.475-25.6-25.6-25.6c-14.112 0-25.6 11.481-25.6 25.6zM261.011 222.151c0-3.534-2.865-6.4-6.4-6.4s-6.4 2.865-6.4 6.4c0 3.535 2.865 6.4 6.4 6.4 3.535 0 6.4-2.865 6.4-6.4z" />
<glyph unicode="&#xe62d;" d="M416.499 259.117c4.998 4.999 4.998 13.101 0 18.099l-126.714 126.713c-4.8 4.8-13.299 4.8-18.099 0l-36.077-36.064c-13.286-13.293-15.027-34.055-4.128-49.376l-161.53-161.549c-27.45-27.437-27.437-72.103 0-99.565 13.299-13.293 30.976-20.615 49.76-20.615h0.013c18.803 0 36.474 7.328 49.76 20.621l161.562 161.542c6.56-4.672 14.253-7.136 22.265-7.136 10.227 0 19.853 3.993 27.111 11.251l36.077 36.077zM151.386 75.488c-8.461-8.461-19.699-13.12-31.674-13.12-11.949 0-23.2 4.659-31.661 13.113-17.466 17.472-17.466 45.901 0 63.36l70.675 70.675h126.701l-134.042-134.029zM345.901 239.782l-8.825 6.285c-5.088 3.616-12.064 3.040-16.474-1.382l-9.562-9.568h-126.714l72.928 72.928c4.423 4.41 5.011 11.386 1.376 16.474l-6.272 8.813c-3.623 5.101-3.065 12.013 1.363 16.429l27.027 27.021 108.615-108.615-27.027-27.021c-4.333-4.32-11.424-4.928-16.435-1.363zM455.853 146.125c-7.776 21.145-24.998 41.395-38.074 54.656-4.813 4.877-13.427 4.877-18.24-0.007-13.101-13.293-30.349-33.555-38.125-54.586-8.077-19.283-3.763-41.267 11.002-56.026 9.664-9.671 22.515-14.995 36.199-14.995 13.677 0 26.534 5.325 36.211 15.002 14.739 14.739 19.072 36.697 11.027 55.955zM426.726 108.269c-4.839-4.839-11.277-7.501-18.112-7.501s-13.261 2.663-18.099 7.495c-7.373 7.379-9.523 18.381-5.472 28.032 0.103 0.25 0.301 0.762 0.403 1.024 4.685 12.697 14.586 25.817 23.226 35.673 8.615-9.849 18.477-22.983 23.213-35.859 0.077-0.211 0.262-0.678 0.352-0.896 4.013-9.619 1.849-20.601-5.51-27.968z" />
<glyph unicode="&#xe62e;" d="M427.399 343.725l-64 64c-18.361 18.361-38.4 19.2-57.575 19.2h-128c-21.203 0-38.4-17.197-38.4-38.4v-12.793h-38.451c-21.203 0-38.4-17.197-38.4-38.4v-281.549c0-21.203 17.197-38.4 38.4-38.4h230.4c21.209 0 38.4 17.197 38.4 38.4v12.793h38.451c21.209 0 38.4 17.197 38.4 38.4v179.143c0 19.207-2.214 40.595-19.226 57.606zM409.299 325.625c0.352-0.358 0.627-0.743 0.96-1.107h-59.661c-3.526 0-6.4 2.873-6.4 6.4v59.673c0.365-0.339 0.736-0.608 1.101-0.966l64-64zM344.173 55.783c0-7.065-5.735-12.8-12.8-12.8h-230.4c-7.059 0-12.8 5.735-12.8 12.8v281.549c0 7.059 5.741 12.8 12.8 12.8h38.451v-243.155c0-21.203 17.197-38.4 38.4-38.4h166.349v-12.793zM421.024 106.976c0-7.059-5.735-12.8-12.8-12.8h-230.4c-7.059 0-12.8 5.741-12.8 12.8v281.549c0 7.059 5.741 12.8 12.8 12.8h128c4.672 0 8.877-0.083 12.774-0.384v-70.022c0-17.639 14.361-32 32-32h69.837c0.409-4.013 0.589-8.262 0.589-12.8v-179.142zM357.024 260.519h-51.2v51.2c0 7.072-5.728 12.8-12.8 12.8-7.065 0-12.8-5.728-12.8-12.8v-51.2h-51.2c-7.065 0-12.8-5.728-12.8-12.8 0-7.065 5.734-12.8 12.8-12.8h51.2v-51.2c0-7.065 5.735-12.8 12.8-12.8 7.072 0 12.8 5.735 12.8 12.8v51.2h51.2c7.072 0 12.8 5.734 12.8 12.8 0 7.078-5.721 12.8-12.8 12.8z" />
<glyph unicode="&#xe62f;" d="M384.96 401.382c-62.502 0-125.069 24.403-125.69 24.653-3.161 1.248-6.688 1.19-9.798-0.16-0.563-0.237-57.286-24.486-125.28-24.486-26.906 0-48.8-21.894-48.8-48.8v-40c0-265.562 175.513-294.803 177.286-295.065 0.627-0.096 1.255-0.135 1.888-0.135 0.672 0 1.351 0.051 2.009 0.154 1.773 0.281 177.184 31.309 177.184 295.046v40c0 26.899-21.888 48.793-48.8 48.793zM408.16 312.582c0-228.723-134.477-265.331-153.607-269.376-17.779 3.801-153.561 40.423-153.561 269.376v40c0 12.787 10.406 23.2 23.2 23.2 62.176 0 114.592 18.387 130.554 24.608 16.627-6.041 72.467-24.608 130.214-24.608 12.8 0 23.2-10.413 23.2-23.2v-40zM258.317 371.507c-1.683 1.203-3.853 1.51-5.798 0.839-27.194-9.376-70.029-20.813-119.686-22.061-3.469-0.083-6.24-2.925-6.24-6.393v-31.309c0-189.011 96.371-233.363 125.907-242.451 0.557-0.173 1.178-0.256 1.792-0.256 0.864 0 1.734 0.154 2.496 0.429 2.534 0.915 4.217 3.322 4.217 6.010v289.978c0 2.067-1.005 4.007-2.688 5.216zM248.205 85.216c-33.645 13.466-108.813 62.137-108.813 227.36v25.113c43.782 1.837 81.997 11.123 108.813 19.725v-272.198z" />
<glyph unicode="&#xe630;" d="M459.399 232.781c0 21.178-17.223 38.4-38.4 38.4h-100.435c1.939 15.001 4.461 39.353 4.461 64 0 48.377-26.56 70.4-51.226 70.4-32 0-32-33.888-32-76.8 0-30.899-48.102-78.464-72.973-99.763-5.037 2.425-10.649 3.815-16.601 3.815h-64c-21.209 0-38.4-17.191-38.4-38.4l12.8-115.2c2.439-20.179 17.191-38.4 38.4-38.4h51.2c16.537 0 30.585 10.477 35.987 25.133l20.736-10.867c1.824-0.96 3.872-1.466 5.939-1.466h170.899c19.411 0 35.213 15.789 35.213 35.2 0 5.44-1.274 10.56-3.488 15.161 9.773 6.265 16.288 17.203 16.288 29.639 0 5.856-1.466 11.36-4 16.224 10.125 6.925 16.8 18.553 16.8 31.725 0 6.848-1.824 13.28-4.986 18.855 10.675 6.835 17.786 18.759 17.786 32.346zM152.224 66.432h-51.2c-7.187 0-12.064 8.185-12.96 15.623l-12.602 113.421c0.537 6.567 6.048 11.757 12.761 11.757h64c7.053 0 12.8-5.735 12.8-12.8v-106.375c-0.237-1.414-0.237-2.81 0-4.185v-4.64c0-7.053-5.747-12.8-12.8-12.8zM385.786 79.232h-167.75l-27.411 14.375v100.825c0 5.863-1.351 11.399-3.699 16.371 22.599 19.507 80.474 73.754 80.474 117.984 0 26.336 0 51.2 6.4 51.2 12.723 0 25.625-15.385 25.625-44.8 0-36.826-6.189-74.311-6.253-74.688-0.627-3.712 0.423-7.513 2.848-10.387 2.438-2.867 6.010-4.525 9.773-4.525h115.2c7.053 0 12.8-5.734 12.8-12.8 0-7.059-5.747-12.8-12.8-12.8h-14.227c-7.072 0-12.8-5.728-12.8-12.8 0-7.065 5.728-12.8 12.8-12.8h1.363c0.026 0 0.038 0 0.064 0 7.053 0 12.8-5.741 12.8-12.8 0-7.065-5.747-12.8-12.8-12.8h-8.627c-0.327 0.013-0.653 0.051-0.986 0.051-0.16 0-0.327-0.045-0.486-0.051h-4.115c-7.072 0-12.8-5.735-12.8-12.8s5.728-12.8 12.8-12.8h5.101c5.063-0.262 9.113-4.423 9.113-9.549 0-5.286-4.313-9.6-9.613-9.6h-12.423c-0.038 0-0.077-0.013-0.128-0.013-0.077 0-0.16 0.013-0.25 0.013-7.065 0-12.8-5.735-12.8-12.8s5.735-12.8 12.8-12.8c5.299 0 9.613-4.307 9.613-9.6 0.007-5.293-4.307-9.606-9.606-9.606z" />
<glyph unicode="&#xe631;" d="M420.998 426.95h-332.8c-21.203 0-38.4-17.197-38.4-38.4v-332.8c0-21.203 17.203-38.4 38.4-38.4h332.8c21.209 0 38.4 17.197 38.4 38.4v332.8c0 21.203-17.184 38.4-38.4 38.4zM88.198 401.351h332.8c7.065 0 12.8-5.741 12.8-12.8v-262.394h-42.976l-45.351 94.695c-1.901 3.975-5.715 6.695-10.099 7.194-4.339 0.474-8.697-1.299-11.45-4.742l-29.248-36.691-69.222 112.697c-2.439 3.962-6.912 6.253-11.513 6.080-4.666-0.218-8.839-2.963-10.887-7.155l-84.314-172.077h-43.334v262.394c-0.007 7.053 5.747 12.8 12.793 12.8zM147.277 126.208l68.537 139.885 66.599-108.429c2.176-3.558 5.965-5.817 10.125-6.074 4.237-0.256 8.185 1.543 10.791 4.793l27.885 34.989 31.213-65.165h-215.149zM420.998 42.95h-332.8c-7.053 0-12.8 5.741-12.8 12.8v44.807h358.4v-44.807c0-7.059-5.735-12.8-12.8-12.8zM344.224 260.55c28.275 0 51.2 22.925 51.2 51.2s-22.925 51.2-51.2 51.2-51.2-22.925-51.2-51.2 22.925-51.2 51.2-51.2zM344.224 337.351c14.112 0 25.6-11.481 25.6-25.6s-11.488-25.6-25.6-25.6c-14.125 0-25.6 11.482-25.6 25.6s11.475 25.6 25.6 25.6z" />
<glyph unicode="&#xe632;" d="M395.399 222.17c-17.677 0-32-14.323-32-32 0-59.987-48.8-108.8-108.793-108.8-59.993 0-108.806 48.813-108.806 108.8 0 55.232 42.169 101.625 95.975 108.038v-50.489c0-5.088 3.021-9.696 7.68-11.731 1.651-0.717 3.386-1.069 5.12-1.069 3.168 0 6.291 1.184 8.711 3.424l89.625 83.219c2.611 2.426 4.089 5.817 4.089 9.383s-1.472 6.963-4.089 9.382l-89.619 83.181c-3.731 3.462-9.159 4.39-13.831 2.349-4.666-2.035-7.68-6.637-7.68-11.731v-51.629c-89.024-6.637-159.975-82.048-159.975-172.327 0-95.277 77.517-172.8 172.806-172.8 95.277 0 172.794 77.523 172.794 172.8-0.007 17.677-14.329 32-32.007 32zM267.373 384.781l58.010-53.837-58.010-53.869v107.705zM254.611 42.969c-81.171 0-147.207 66.035-147.207 147.2 0 76.327 59.539 140.147 134.375 146.624v-12.954c-67.891-6.547-121.575-64.435-121.575-133.671 0-74.106 60.294-134.4 134.406-134.4 74.106 0 134.394 60.294 134.394 134.4 0 3.533 2.873 6.4 6.4 6.4 3.539 0 6.4-2.867 6.4-6.4-0.007-81.165-66.029-147.2-147.194-147.2z" />
<glyph unicode="&#xe633;" d="M344.147 337.351c0 49.408-40.185 89.6-89.6 89.6-49.408 0-89.6-40.192-89.6-89.6h-76.768v-281.6c0-21.203 17.197-38.4 38.4-38.4h256c21.209 0 38.4 17.197 38.4 38.4v281.6h-76.832zM254.554 401.351c35.283 0 64-28.704 64-64h-128c0 35.296 28.71 64 64 64zM395.373 55.75c0-7.059-5.735-12.8-12.8-12.8h-256c-7.059 0-12.8 5.741-12.8 12.8v256h51.175v-32.007c0-7.065 5.734-12.8 12.8-12.8s12.8 5.735 12.8 12.8v32.007h128v-32.007c0-7.065 5.735-12.8 12.8-12.8 7.072 0 12.8 5.735 12.8 12.8v32.007h51.226v-256z" />
<glyph unicode="&#xe634;" d="M421.011 414.125h-332.8c-21.209 0-38.4-17.19-38.4-38.4v-268.8c0-21.203 17.191-38.4 38.4-38.4h12.8v-12.755c0-14.137 11.463-25.6 25.6-25.6h25.6c14.137 0 25.6 11.462 25.6 25.6v12.755h153.574v-12.755c0-14.137 11.462-25.6 25.6-25.6h25.6c14.137 0 25.6 11.462 25.6 25.6v12.755h12.825c21.203 0 38.4 17.197 38.4 38.4v268.8c0 21.209-17.197 38.4-38.4 38.4zM165.011 55.769c0-7.059-5.747-12.8-12.8-12.8h-25.6c-7.066 0-12.8 5.741-12.8 12.8v12.755h51.2v-12.755zM395.385 55.769c0-7.059-5.747-12.8-12.8-12.8h-25.6c-7.065 0-12.8 5.741-12.8 12.8v12.755h51.2v-12.755zM433.811 106.925c0-7.059-5.747-12.8-12.8-12.8h-332.8c-7.066 0-12.8 5.741-12.8 12.8v268.8c0 7.059 5.734 12.8 12.8 12.8h332.8c7.053 0 12.8-5.741 12.8-12.8v-268.8zM254.585 311.725c-38.886 0-70.4-31.52-70.4-70.4s31.513-70.4 70.4-70.4c38.874 0 70.4 31.52 70.4 70.4s-31.52 70.4-70.4 70.4zM254.585 183.725c-31.763 0-57.6 25.837-57.6 57.6s25.837 57.6 57.6 57.6 57.6-25.837 57.6-57.6-25.837-57.6-57.6-57.6zM254.585 273.325c-17.677 0-32-14.323-32-32s14.323-32 32-32 32 14.323 32 32-14.323 32-32 32zM254.585 222.125c-10.585 0-19.2 8.614-19.2 19.2s8.614 19.2 19.2 19.2 19.2-8.614 19.2-19.2-8.608-19.2-19.2-19.2zM389.011 324.525v25.6c0 7.065-5.735 12.8-12.8 12.8h-243.2c-7.072 0-12.8-5.735-12.8-12.8v-217.6c0-7.065 5.728-12.8 12.8-12.8h243.2c7.065 0 12.8 5.735 12.8 12.8v25.6c7.053 0.013 12.774 5.735 12.774 12.793v51.207c0 7.059-5.728 12.781-12.774 12.793v12.806c7.053 0.013 12.774 5.734 12.774 12.8v51.2c0 7.059-5.721 12.787-12.774 12.8zM388.986 260.525h-25.6v51.2h25.6v-51.2zM145.811 145.325v192h217.6v-12.8h-0.026c-7.072 0-12.8-5.735-12.8-12.8v-51.2c0-7.065 5.728-12.8 12.8-12.8h0.026v-12.8h-0.026c-7.072 0-12.8-5.734-12.8-12.8v-51.207c0-7.065 5.728-12.8 12.8-12.8h0.026v-12.793h-217.6zM388.986 170.918h-25.6v51.207h25.6v-51.207z" />
<glyph unicode="&#xe635;" d="M382.599 257.351c-8.986 0-17.575-1.625-25.587-4.461l-18.061 41.447-10.637 27.021h35.065c4.199 0 7.488-1.293 9.786-3.84 2.010-2.247 3.175-5.466 3.175-8.845 0-4.8-2.726-12.915-12.96-12.915-3.539 0-6.4-2.867-6.4-6.4s2.861-6.4 6.4-6.4c9.901 0 15.949 4.448 19.277 8.186 4.185 4.685 6.49 10.912 6.49 17.529 0 12.666-8.851 25.485-25.76 25.485h-57.6c-3.539 0-6.4-2.867-6.4-6.4s2.861-6.4 6.4-6.4h8.774l9.127-23.168h-115.975l-13.415 29.568h21.875c3.539 0 6.4 2.867 6.4 6.4s-2.861 6.4-6.4 6.4h-63.975c-3.539 0-6.4-2.867-6.4-6.4s2.861-6.4 6.4-6.4h28.051l15.578-34.311-31.609-45.965c-11.123 6.266-23.936 9.875-37.613 9.875-42.413 0-76.8-34.387-76.8-76.8 0-42.419 34.387-76.8 76.8-76.8 40.128 0 73.011 30.771 76.461 69.997h26.822c2.848-11.027 12.787-19.2 24.685-19.2 14.137 0 25.6 11.462 25.6 25.6 0 6.765-2.675 12.864-6.95 17.44l58.477 81.331 13.625-31.238c-23.565-13.12-39.526-38.247-39.526-67.123 0-42.419 34.387-76.8 76.8-76.8 42.425 0 76.8 34.381 76.8 76.8 0 42.4-34.375 76.787-76.8 76.787zM320.601 285.382l-58.24-80.973c-2.464 0.793-5.050 1.337-7.789 1.337-1.6 0-3.161-0.185-4.685-0.474l-36.365 80.115h107.079zM202.003 279.827l36.327-80.058c-4.077-3.373-7.072-7.949-8.435-13.223h-26.791c-1.677 21.696-12.327 40.858-28.288 53.754l27.187 39.527zM177.427 186.541h-39.578l22.362 32.531c9.338-8.154 15.686-19.597 17.216-32.531zM126.599 129.351c-28.224 0-51.2 22.969-51.2 51.2s22.976 51.2 51.2 51.2c8.275 0 16.077-2.016 23.001-5.523l-29.203-42.458c-1.338-1.959-1.485-4.499-0.391-6.599 1.114-2.112 3.29-3.424 5.664-3.424h51.623c-3.341-25.017-24.768-44.397-50.695-44.397zM254.573 167.341c-7.053 0-12.8 5.735-12.8 12.8s5.747 12.8 12.8 12.8c7.066 0 12.8-5.735 12.8-12.8s-5.735-12.8-12.8-12.8zM382.599 129.351c-28.224 0-51.2 22.969-51.2 51.2 0 18.329 9.728 34.394 24.237 43.45l20.237-46.413c1.050-2.406 3.399-3.846 5.875-3.846 0.851 0 1.715 0.166 2.547 0.538 3.238 1.414 4.723 5.178 3.315 8.416l-20.365 46.695c4.851 1.53 10.010 2.355 15.347 2.355 28.237 0 51.2-22.97 51.2-51.2s-22.957-51.193-51.193-51.193z" />
<glyph unicode="&#xe636;" d="M369.786 426.95h-230.368c-21.203 0-38.4-17.197-38.4-38.4v-332.8c0-21.203 17.197-38.4 38.4-38.4h230.375c21.209 0 38.4 17.197 38.4 38.4v332.8c-0.007 21.203-17.19 38.4-38.406 38.4zM139.417 401.351h230.375c7.065 0 12.8-5.741 12.8-12.8v-12.851h-255.975v12.851c0 7.053 5.741 12.8 12.8 12.8zM382.586 362.899v-255.955h-255.968v255.955h255.968zM369.786 42.95h-230.368c-7.059 0-12.8 5.741-12.8 12.8v38.394h255.975v-38.394c-0.007-7.059-5.741-12.8-12.806-12.8zM254.605 81.401c-7.072 0-12.8-5.735-12.8-12.8s5.728-12.807 12.8-12.807c7.066 0 12.8 5.735 12.8 12.807s-5.735 12.8-12.8 12.8z" />
<glyph unicode="&#xe637;" d="M95.046 17.267c-13.677 0-26.534 5.325-36.205 14.995-9.671 9.671-14.995 22.534-14.995 36.205s5.325 26.534 14.995 36.199l158.227 158.227c-16.544 44.256-5.901 94.931 27.789 128.614 22.912 22.912 53.382 35.526 85.811 35.526 17.575 0 35.264-3.885 51.161-11.232 3.801-1.754 6.502-5.255 7.238-9.376 0.736-4.122-0.589-8.339-3.552-11.296l-53.728-53.715 6.035-30.169 30.163-6.035 53.261 53.255c2.976 2.989 7.213 4.307 11.399 3.533 4.147-0.781 7.648-3.552 9.363-7.417 20.423-46.304 10.534-99.322-25.19-135.047-22.925-22.918-53.414-35.546-85.837-35.546v0c-14.087 0-27.827 2.375-40.947 7.065l-158.791-158.784c-9.664-9.677-22.522-15.002-36.198-15.002zM330.663 401.433c-25.587 0-49.639-9.952-67.712-28.025-28.269-28.275-35.975-71.731-19.161-108.141 2.253-4.864 1.222-10.624-2.566-14.413l-164.281-164.288c-4.832-4.839-7.495-11.264-7.495-18.099s2.662-13.267 7.495-18.099c4.838-4.839 11.27-7.501 18.106-7.501s13.261 2.663 18.099 7.501l164.743 164.736c3.738 3.731 9.363 4.8 14.214 2.663 12.301-5.427 25.389-8.173 38.887-8.173 25.587 0 49.651 9.965 67.738 28.045 23.501 23.514 32.839 56.519 25.939 88.038l-43.411-43.411c-3.040-3.027-7.36-4.345-11.565-3.501l-45.248 9.056c-5.063 1.011-9.024 4.973-10.035 10.041l-9.050 45.255c-0.851 4.199 0.474 8.531 3.501 11.558l44.128 44.135c-7.309 1.728-14.835 2.624-22.323 2.624z" />
<glyph unicode="&#xe638;" d="M305.485 214.176c27.053 20.377 45.101 56.397 45.101 97.555 0 63.623-42.976 115.2-96 115.2-53.011 0-96-51.577-96-115.2 0-41.171 18.048-77.19 45.126-97.568-66.989-21.498-115.488-84.275-115.501-158.4 0.013-21.203 17.203-38.387 38.4-38.387h256c21.203 0 38.387 17.19 38.4 38.387-0.013 74.137-48.525 136.915-115.526 158.413zM318.035 350.285c-45.849 2.189-82.861 15.661-101.427 36.768 10.963 8.992 23.987 14.272 37.977 14.272 27.962 0.007 52.102-20.909 63.449-51.040zM184.185 311.731c0 21.171 5.824 40.615 15.513 55.962 24.934-26.272 69.523-41.952 124.487-43.213 0.474-4.179 0.8-8.41 0.8-12.749 0-49.408-31.577-89.6-70.4-89.6-38.809 0-70.4 40.192-70.4 89.6zM382.611 42.976h-256c-7.053 0-12.787 5.735-12.8 12.774 0.013 77.625 63.175 140.774 140.8 140.774s140.787-63.149 140.8-140.749c0-7.065-5.735-12.8-12.8-12.8z" />
<glyph unicode="&#xe639;" d="M203.399 170.925c0-14.139-11.462-25.6-25.6-25.6s-25.6 11.462-25.6 25.6c0 14.139 11.462 25.6 25.6 25.6 14.138 0 25.6-11.462 25.6-25.6zM356.973 170.925c0-14.139-11.462-25.6-25.6-25.6s-25.6 11.462-25.6 25.6c0 14.139 11.462 25.6 25.6 25.6 14.139 0 25.6-11.462 25.6-25.6zM433.798 426.931h-358.4c-14.138 0-25.6-11.462-25.6-25.6v-268.8c0-14.137 11.462-25.6 25.6-25.6h35.239c4.301-4.774 9.76-8.461 15.962-10.605v-27.744c0-28.275 22.925-51.2 51.2-51.2s51.2 22.925 51.2 51.2v25.6h51.175v-25.6c0-28.275 22.925-51.2 51.2-51.2s51.2 22.925 51.2 51.2v27.911c6.010 2.176 11.315 5.786 15.501 10.438h35.725c14.137 0 25.6 11.462 25.6 25.6v268.8c0 14.137-11.462 25.6-25.6 25.6zM382.349 132.576c0-7.053-5.735-12.8-12.8-12.8h-230.4c-7.053 0-12.8 5.747-12.8 12.8v192c0 7.059 5.747 12.8 12.8 12.8h230.4c7.065 0 12.8-5.741 12.8-12.8v-192zM203.399 68.576c0-14.112-11.488-25.6-25.6-25.6s-25.6 11.488-25.6 25.6v25.6h51.2v-25.6zM331.373 42.976c-14.112 0-25.6 11.488-25.6 25.6v25.6h51.2v-25.6c0-14.112-11.488-25.6-25.6-25.6zM433.798 132.525h-25.849c0 0.026 0 0.038 0 0.051v192c0 21.209-17.19 38.4-38.4 38.4h-230.4c-21.203 0-38.4-17.191-38.4-38.4v-192c0-0.013 0-0.026 0-0.051h-25.35v268.8h358.4v-268.8zM344.199 311.673h-179.2c-7.065 0-12.8-5.735-12.8-12.8v-89.549h204.8v89.549c0 7.072-5.721 12.8-12.8 12.8zM344.199 222.125h-179.2v76.749h179.2v-76.749z" />
<glyph unicode="&#xe63a;" d="M254.605 145.351c42.407 0 76.8 34.387 76.8 76.8v128c0 42.413-34.387 76.8-76.8 76.8s-76.8-34.387-76.8-76.8v-128c0-42.413 34.387-76.8 76.8-76.8zM203.405 350.15c0 28.231 22.97 51.2 51.2 51.2 28.237 0 51.2-22.97 51.2-51.2v-128c0-28.231-22.963-51.2-51.2-51.2-28.231 0-51.2 22.976-51.2 51.2v128zM369.798 260.544c-7.065 0-12.8-5.734-12.8-12.8v-25.593c0-56.467-45.939-102.4-102.4-102.4s-102.4 45.939-102.4 102.4v25.594c0 7.065-5.734 12.8-12.8 12.8s-12.8-5.734-12.8-12.8v-25.594c0-66.259 50.605-120.909 115.2-127.353v-51.853h-63.975c-7.065 0-12.8-5.735-12.8-12.8 0-7.072 5.734-12.8 12.8-12.8h153.6c7.072 0 12.8 5.728 12.8 12.8 0 7.065-5.728 12.8-12.8 12.8h-64.025v51.853c64.601 6.445 115.2 61.094 115.2 127.353v25.594c0 7.072-5.721 12.8-12.8 12.8z" />
<glyph unicode="&#xe63b;" d="M303.603 63.347c0-0.237-0.026-0.467-0.026-0.697 0 0.179 0.051 0.352 0.051 0.525-0.007 0.064-0.019 0.115-0.026 0.173zM254.579 68.601c7.065 0 12.8 5.728 12.8 12.8v179.149c0 7.065-5.728 12.8-12.8 12.8s-12.8-5.735-12.8-12.8v-179.149c0-7.079 5.728-12.8 12.8-12.8zM318.573 68.601c7.072 0 12.8 5.728 12.8 12.8v179.149c0 7.065-5.728 12.8-12.8 12.8-7.065 0-12.8-5.735-12.8-12.8v-179.149c0-7.079 5.741-12.8 12.8-12.8zM190.579 68.601c7.065 0 12.8 5.728 12.8 12.8v179.149c0 7.065-5.734 12.8-12.8 12.8s-12.8-5.735-12.8-12.8v-179.149c0-7.079 5.728-12.8 12.8-12.8zM395.399 362.944h-25.6v38.4c0 14.137-11.462 25.6-25.6 25.6h-179.2c-14.137 0-25.6-11.463-25.6-25.6v-38.4h-25.6c-21.203 0-38.4-17.197-38.4-38.4v-25.6h38.374v-243.2c0-21.203 17.197-38.4 38.4-38.4h204.8c21.209 0 38.4 17.197 38.4 38.4v243.2h38.425v25.6c0 21.21-17.184 38.4-38.4 38.4zM165.005 401.351h179.2v-38.343h-179.2v38.343zM369.773 55.75c0-7.059-5.735-12.8-12.8-12.8h-204.8c-7.059 0-12.8 5.741-12.8 12.8v243.2h230.4v-243.2zM408.173 324.544v-12.8h-307.2v12.8h0.025c0 7.059 5.741 12.8 12.8 12.8h281.6c7.065 0 12.8-5.741 12.8-12.8h-0.026z" />
<glyph unicode="&#xe63c;" d="M398.118 260.135c-2.649 57.6-50.432 103.648-108.787 103.648-37.99 0-72.269-19.175-92.089-50.791-5.92 1.875-12.102 2.835-18.323 2.835-33.555 0-60.858-27.251-60.858-60.749 0-0.627 0.013-1.248 0.032-1.875-40.307-9.427-70.221-45.875-70.221-88.269 0-50.035 40.775-90.752 90.899-90.752h221.824c0.25 0 0.499 0.013 0.749 0.026 53.069 0.409 96.128 43.648 96.128 96.736 0 39.533-23.481 74.253-59.353 89.19zM360.601 99.815c-0.231 0-0.467-0.013-0.697-0.026h-221.126c-36.007 0-65.299 29.223-65.299 65.152 0 33.715 26.4 62.202 60.109 64.851 3.802 0.301 7.264 2.266 9.459 5.376 2.202 3.111 2.893 7.053 1.901 10.726-0.845 3.123-1.274 6.227-1.274 9.203 0 19.385 15.821 35.149 35.257 35.149 6.208 0 12.102-1.575 17.53-4.685 3.078-1.76 6.739-2.176 10.15-1.127 3.386 1.050 6.195 3.463 7.738 6.663 14.035 29.049 42.778 47.097 74.995 47.097 45.933 0 83.303-37.273 83.303-83.097 0-0.525-0.045-1.037-0.083-1.549l-0.109-1.811c-0.25-5.824 3.469-11.085 9.050-12.787 30.131-9.203 50.381-36.525 50.381-67.987-0.013-39.238-31.987-71.149-71.283-71.149zM290.003 318.989c-6.106 0-12.141-0.839-17.939-2.515-3.392-0.986-5.357-4.525-4.377-7.923 0.979-3.386 4.493-5.351 7.923-4.378 4.64 1.338 9.478 2.010 14.387 2.010 20.986 0 40.211-13.113 47.84-32.64 0.986-2.528 3.405-4.077 5.965-4.077 0.774 0 1.562 0.147 2.329 0.448 3.289 1.287 4.921 4.986 3.629 8.288-9.517 24.397-33.536 40.787-59.757 40.787z" />
<glyph unicode="&#xe63d;" d="M444.653 235.001h-83.993c-2.406 20.448-10.477 39.123-22.599 54.489l59.418 59.411c4.998 4.998 4.998 13.101 0 18.099s-13.101 4.999-18.099 0l-59.424-59.424c-15.36 12.128-34.035 20.185-54.477 22.586v84.013c0 7.072-5.735 12.8-12.8 12.8s-12.8-5.728-12.8-12.8v-84.013c-20.435-2.4-39.111-10.464-54.477-22.586l-59.424 59.424c-4.999 4.999-13.101 4.999-18.099 0s-4.998-13.101 0-18.099l59.418-59.411c-12.128-15.36-20.192-34.035-22.599-54.489h-84c-7.066 0-12.8-5.728-12.8-12.8 0-7.065 5.734-12.8 12.8-12.8h83.987c2.4-20.448 10.464-39.123 22.585-54.502l-59.398-59.399c-4.998-4.986-4.998-13.101 0-18.099 2.502-2.502 5.773-3.75 9.049-3.75s6.547 1.248 9.049 3.75l59.392 59.399c15.367-12.135 34.048-20.199 54.509-22.599v-83.975c0-7.065 5.734-12.8 12.8-12.8s12.8 5.735 12.8 12.8v83.975c20.454 2.4 39.136 10.464 54.509 22.599l59.392-59.399c2.502-2.502 5.773-3.75 9.050-3.75s6.547 1.248 9.050 3.75c4.998 4.998 4.998 13.113 0 18.099l-59.399 59.399c12.128 15.373 20.185 34.048 22.586 54.502h83.987c7.065 0 12.8 5.735 12.8 12.8 0.007 7.072-5.728 12.8-12.793 12.8zM252.672 138.976c-45.875 0-83.2 37.325-83.2 83.2s37.325 83.2 83.2 83.2 83.2-37.325 83.2-83.2-37.325-83.2-83.2-83.2z" />
<glyph unicode="&#xe63e;" d="M252.672 426.976c-81.293 0-147.2-65.901-147.2-147.2 0-33.113 12.064-63.251 29.401-88.275l106.701-167.648c1.594-2.765 4.198-4.902 7.399-5.875 1.222-0.365 2.47-0.55 3.699-0.55 0.749 0 1.491 0.077 2.221 0.199 0.512 0.089 1.018 0.211 1.523 0.365 3.091 0.935 5.632 2.989 7.226 5.625l108.966 170.874c-0.026-0.051-0.038-0.077-0.038-0.077 0.007 0 0.038 0.064 0.058 0.103 0.007 0 0.007 0.013 0.013 0.013 17.127 24.064 27.232 53.465 27.232 85.248 0 81.299-65.901 147.2-147.2 147.2zM358.605 220.089h-0.032l-105.875-166.041-96.781 152.032c-11.334 16.352-24.845 42.413-24.845 73.69 0 67.053 54.547 121.6 121.6 121.6s121.6-54.547 121.6-121.6c0-21.12-5.376-41.517-15.667-59.68zM252.71 343.526c-35.29 0-64-28.71-64-64s28.71-64 64-64 64 28.71 64 64-28.711 64-64 64zM252.71 241.312c-21.107 0-38.215 17.113-38.215 38.214 0 21.113 17.107 38.214 38.214 38.214s38.214-17.101 38.214-38.214c0-21.101-17.107-38.214-38.214-38.214z" />
<glyph unicode="&#xe63f;" d="M297.792 396.013v5.389c0 14.137-11.462 25.6-25.6 25.6h-38.4c-14.137 0-25.6-11.463-25.6-25.6v-5.222c-84.589-20.064-147.539-96.051-147.539-186.778 0-106.035 85.959-192 192-192s192 85.965 192 192c0 90.483-62.611 166.298-146.861 186.611zM220.992 401.401c0 7.065 5.741 12.8 12.8 12.8h38.4c7.059 0 12.8-5.735 12.8-12.8v-2.765c-10.522 1.786-21.312 2.765-32.346 2.765-10.791 0-21.351-0.928-31.654-2.637v2.637zM252.653 43.002c-91.751 0-166.4 74.649-166.4 166.4s74.649 166.4 166.4 166.4 166.4-74.649 166.4-166.4-74.649-166.4-166.4-166.4zM197.645 332.288c3.232 1.44 4.679 5.222 3.251 8.448-1.44 3.226-5.203 4.697-8.448 3.251-40.141-17.837-70.010-52.262-81.945-94.451-0.96-3.399 1.011-6.938 4.409-7.898 0.582-0.16 1.171-0.237 1.747-0.237 2.79 0 5.357 1.837 6.15 4.666 10.899 38.509 38.169 69.933 74.835 86.221zM345.255 310.361c-11.373-4.198-111.744-41.574-131.507-60.326-19.885-18.874-57.805-121.613-62.067-133.261-0.87-2.375-0.256-5.037 1.561-6.803 1.216-1.178 2.816-1.798 4.448-1.798 0.806 0 1.625 0.147 2.4 0.474 11.719 4.736 114.963 46.752 132.595 61.363 18.202 15.085 56.499 120.237 60.806 132.173 0.845 2.349 0.256 4.96-1.51 6.726-1.76 1.754-4.377 2.329-6.726 1.453zM284.519 179.872c-11.974-9.939-78.502-38.464-115.712-53.837 13.99 36.8 40.614 102.253 53.754 114.714 13.28 12.601 78.067 38.938 114.087 52.697-16.39-43.962-41.543-104.807-52.128-113.575zM271.853 209.401c0-10.604-8.596-19.2-19.2-19.2s-19.2 8.596-19.2 19.2c0 10.604 8.596 19.2 19.2 19.2 10.604 0 19.2-8.596 19.2-19.2z" />
<glyph unicode="&#xe640;" d="M252.947 254.125c-17.671 0-32.007-14.323-32.007-32s14.336-32 32.007-32c17.664 0 31.993 14.323 31.993 32s-14.329 32-31.994 32zM252.947 202.925c-10.592 0-19.207 8.615-19.207 19.2s8.614 19.2 19.207 19.2c10.579 0 19.193-8.614 19.193-19.2s-8.608-19.2-19.194-19.2zM385.133 222.227c39.328 41.677 57.050 82.534 41.843 107.238-8.877 14.425-27.699 21.325-52.755 21.325-15.821-0.013-34.144-2.803-54.003-8.16-15.117 51.085-39.597 84.301-67.27 84.301-27.693 0-52.141-33.299-67.264-84.41-20.089 5.453-38.618 8.275-54.605 8.275-25.049 0-43.872-6.899-52.749-21.325-15.206-24.697 2.547-65.536 41.856-107.213-39.469-41.747-57.28-82.714-42.041-107.475 8.877-14.413 27.686-21.299 52.736-21.299 16.006 0 34.599 2.887 54.726 8.377 15.111-51.2 39.616-84.525 67.341-84.525 27.667 0 52.109 33.261 67.219 84.327 19.949-5.389 38.361-8.173 54.259-8.173 25.050 0 43.865 6.887 52.736 21.299 15.232 24.749-2.573 65.683-42.029 107.437zM374.233 325.19c15.616 0 27.475-3.501 30.944-9.139 4.499-7.315 0.346-26.535-19.079-52.986-12.729-17.338-29.913-34.925-50.144-51.815 0.083 3.61 0.192 7.213 0.192 10.873 0 34.56-3.488 67.098-9.625 95.661 17.543 4.774 33.792 7.392 47.712 7.405zM222.56 173.075c-9.152 5.625-17.805 11.552-26.246 17.562-0.633 10.022-0.973 20.525-0.973 31.488 0 11.174 0.397 21.786 1.049 31.962 8.109 5.715 16.755 11.424 25.977 17.101 10.061 6.189 20.256 11.763 30.451 17.024 10.087-5.209 20.166-10.899 30.118-17.024 9.498-5.85 18.323-11.738 26.63-17.625 0.634-10.003 0.973-20.487 0.973-31.437 0-10.887-0.365-21.274-0.992-31.213-8.601-6.125-17.498-12.115-26.803-17.837-9.965-6.137-20.064-11.763-30.157-16.986-10.054 5.209-20.109 10.887-30.029 16.986zM252.947 401.325c15.539 0 42.745-39.987 53.255-114.611-3.251 2.112-6.509 4.211-9.849 6.272-29.414 18.099-58.912 32.147-86.432 41.901 12.845 43.475 31.277 66.439 43.027 66.439zM100.135 316.051c3.469 5.638 15.335 9.139 30.951 9.139 25.305 0 58.259-8.512 92.877-23.334-4.999-2.835-10.003-5.786-15.008-8.864-26.733-16.448-50.535-34.477-70.502-52.774-7.161 7.609-13.657 15.264-19.239 22.848-19.424 26.445-23.584 45.671-19.079 52.986zM130.88 119.072c-15.616 0-27.475 3.501-30.938 9.127-8.153 13.248 11.737 57.536 70.022 105.715-0.096-3.911-0.224-7.815-0.224-11.789 0-34.477 3.475-66.951 9.581-95.462-17.824-4.902-34.329-7.591-48.441-7.591zM252.947 42.925c-15.52 0-42.681 39.897-53.229 114.349 3.111-2.010 6.227-4.038 9.427-6.003 29.549-18.189 59.2-32.301 86.829-42.048-12.839-43.424-31.271-66.298-43.027-66.298zM405.363 128.199c-3.462-5.625-15.322-9.127-30.938-9.127-25.37 0-58.419 8.55-93.127 23.437 4.947 2.822 9.907 5.715 14.861 8.762 26.88 16.538 50.816 34.675 70.841 53.088 33.671-35.821 44.807-65.683 38.361-76.16z" />
</font>
</defs>
</svg>
